<?xml version="1.0"?><svg width="1280" height="960" xmlns="http://www.w3.org/2000/svg">
 <title>123</title>
 <metadata id="metadata65">image/svg+xml</metadata>
 <g>
  <title>Layer 1</title>
  <g transform="translate(-40.5, 8) translate(38, -18) translate(-41, -1)" id="g2216">
   <g id="g8660">
    <path fill=" rgb(22, 22, 22)" id="path2251" d="m129.747314,513.239868c-2.393219,-0.552368 -4.797333,-0.812134 -7.265472,-0.552368c-2.848801,-0.068054 -5.928207,-0.602722 -8.419739,-1.90155c-0.577133,-3.374512 2.684021,-4.686035 5.233994,-5.672119c2.776825,-1.35437 6.038895,-1.659546 8.402435,-3.803284c3.358414,-2.80957 7.62999,-4.17395 11.085953,-6.809509c1.015396,-0.544769 0.946732,-1.583862 0.950485,-2.587646c0.186096,-3.684692 0.48996,-7.445068 -0.737671,-11.003693c-2.379715,-8.667786 -5.597748,-17.087646 -8.05748,-25.728699c-1.698776,-4.46756 -4.010315,-8.792358 -4.389603,-13.647308c-1.055573,-7.175995 -0.101364,-14.524231 -1.516434,-21.652039c-1.249573,-3.013367 -0.636459,-6.377777 -0.84082,-9.557831c-0.181915,-6.568176 0.23613,-13.185516 -0.607895,-19.715881c-2.834579,-10.918701 -3.276672,-22.285339 -3.214172,-33.513763c0.097076,-7.438507 0.620193,-14.902771 2.223114,-22.18042c0.406677,-3.372467 0.885361,-6.759094 2.047577,-9.967377c-0.241196,-5.446625 -1.055206,-10.995911 0.478531,-16.335083c1.593613,-5.795166 1.873672,-11.811523 1.887802,-17.788269c0.068649,-5.021149 0.759293,-9.999176 1.222641,-14.99231c0.526535,-4.499084 1.336304,-8.968933 2.153091,-13.41153c0.045181,-4.148254 0.390503,-8.361847 -0.293655,-12.469269c-1.617493,-4.569183 -3.847412,-8.917496 -5.202698,-13.591293c-1.808502,-4.962692 -1.788223,-10.334442 -2.56015,-15.47908c-1.947556,-3.429459 -4.183746,-6.859146 -4.470886,-10.910797c-0.666031,-3.587158 -0.31871,-7.935242 -3.418396,-10.500931c-3.961731,-3.475128 -9.583527,-3.556595 -14.5755,-3.920532c-3.798691,-0.086746 -7.588196,-0.225464 -11.337936,-0.827988c-4.776749,-0.439835 -9.631699,-0.557114 -14.226624,-2.091278c-1.604034,-0.26683 -3.177277,-1.105667 -4.797958,-1.069855c-11.230927,1.907425 -22.675491,0.430267 -33.880966,-0.916519c-6.474098,-1.118011 -12.445808,-3.990372 -18.289398,-6.862747c-3.450668,-1.440338 -7.33387,-3.072861 -11.089203,-1.887253c-2.56089,1.594696 -5.496552,2.547028 -8.538651,2.316254c-3.079178,0.310471 -5.974739,-0.785873 -8.968918,-1.217636c-2.80957,-0.173264 -5.648384,-0.377304 -8.258698,-1.531143c-2.734665,-0.531143 -5.759865,-1.093063 -8.436771,-0.065826c-2.434277,1.211853 -5.330093,0.914749 -7.881145,0.325851c-2.331142,-0.780319 -4.122299,-2.22319 -2.859257,-4.878403c-1.576019,-3.086487 2.063541,-4.317245 3.944736,-5.821899c2.795452,-2.637817 6.869061,-1.863541 10.367653,-2.072113c6.966408,0.001007 13.958786,-0.289795 20.893913,0.483475c4.746758,0.027481 9.473587,-0.727112 14.217308,-0.616135c1.416885,0.269852 2.501114,1.63327 4.040573,1.272369c7.686958,-0.036316 15.387283,0.044388 23.043221,-0.753845c6.168182,-0.17981 12.440262,-0.35939 18.488388,1.046661c4.068573,0.179321 7.874847,1.844879 11.888687,2.431c4.676392,0.979309 9.419113,-0.276672 14.139877,-0.057251c4.282944,0.008072 8.611298,0.086761 12.81427,0.919281c2.630066,-0.75737 5.111908,-2.063278 7.645233,-3.063522c2.621323,-2.039337 -0.192841,-5.486984 -0.591263,-7.994904c-1.037125,-2.565933 -1.018463,-5.441071 -2.286926,-7.931091c-0.768524,-2.795441 -0.513214,-5.743973 -1.281128,-8.550507c-0.674347,-4.053696 -1.397308,-8.124786 -2.676315,-12.023621c-0.483429,-3.448151 -0.684723,-6.934387 -1.326797,-10.36058c-0.085358,-3.383591 1.82608,-6.402985 2.690063,-9.595901c2.219025,-6.454933 4.361877,-12.960312 6.253555,-19.504776c1.247543,-2.388123 2.782394,-4.592407 4.045517,-6.973213c3.347717,-5.634773 6.936066,-11.116692 10.714615,-16.470001c3.23262,-4.922028 5.404388,-10.572685 9.610184,-14.82032c2.860779,-3.019653 5.876953,-6.118744 7.212402,-10.156055c1.605011,-2.017887 2.610657,-4.390373 4.304886,-6.333618c2.270447,-3.052429 4.359039,-6.259731 7.216263,-8.81834c2.59343,-2.229744 3.981064,-5.369701 5.702362,-8.239548c1.132401,-1.977032 3.467316,-6.329079 6.049133,-4.379539c0.840607,2.274895 3.980057,4.842342 1.235809,7.142696c-0.662796,2.575016 -3.172989,4.111706 -3.581055,6.789368c-0.250443,2.08371 -4.180298,5.526314 -1.320557,6.654678c3.367447,-0.32737 5.508926,3.481937 3.387375,6.152794c-1.679184,1.964424 -4.634018,2.576527 -5.068069,5.604496c-2.025955,2.89859 -4.876129,5.271339 -8.20018,6.521523c-2.777542,1.972496 -4.494431,5.091003 -6.339203,7.883163c-2.960342,5.164413 -4.714981,10.878624 -6.077835,16.642761c-1.738205,6.144218 -3.368362,12.385536 -6.11734,18.169861c-2.543304,4.071602 -4.358978,8.578758 -7.254425,12.436981c-2.133377,3.811073 -4.209869,8.012047 -3.825989,12.507347c-0.065048,2.795456 -0.057678,5.780548 1.974045,7.972961c3.35141,4.650406 5.356766,10.082153 7.639145,15.298248c1.646942,4.732132 3.009186,9.622894 3.551926,14.615295c1.202011,2.791656 3.765045,4.729843 5.497086,7.195908c1.133881,2.873367 4.193115,3.201996 6.131989,0.833786c2.421875,-1.995193 2.171936,-5.682175 1.624252,-8.473068c-0.944656,-2.285492 0.66748,-5.97879 -2.627228,-6.381058c-1.514114,-2.717743 -1.764618,-5.952026 -2.429214,-8.953018c-0.675598,-2.877655 2.021561,-5.159363 0.933487,-7.996155c-0.29068,-3.616379 -0.717514,-7.355316 0.621765,-10.82843c0.78569,-3.382324 3.54982,-5.812317 6.246078,-7.760086c4.184601,-2.506668 9.182037,-2.627472 13.912384,-2.901871c3.347275,0.180817 6.753036,0.588135 9.959091,1.588882c3.484192,1.581573 6.670807,4.173996 8.40976,7.622147c0.99295,3.90892 0.7034,8.017593 0.812866,12.021088c-0.307434,1.889526 -1.020416,3.740707 1.237061,4.584839c1.604767,2.611832 0.404785,5.878647 -0.321808,8.594391c-0.657501,2.220673 -2.064301,4.194168 -4.095551,5.3349c-0.18512,2.011078 -0.395966,4.039063 0.104156,6.018112c0.180328,2.815872 -0.712738,6.961105 3.182556,7.456192c2.741241,0.935181 5.100098,3.070847 8.059723,3.240829c4.167694,-0.689026 7.688477,-3.36795 11.744934,-4.485718c2.841858,-0.626724 5.806519,-0.674149 8.673584,-1.037064c2.948547,0.701126 6.087982,0.399231 8.904602,1.650925c2.243866,0.817398 4.548523,1.491302 6.995911,1.124344c4.087738,-0.123581 8.121521,-0.823959 12.13031,-1.548538c5.673859,0.020676 11.339386,0.573257 16.962311,1.319534c2.741455,-1.475662 5.533875,-3.201492 8.776489,-3.040833c8.094513,-0.359146 16.196838,-0.046158 24.279755,0.390656c9.96994,0.002777 19.902008,-0.944 29.839905,-1.606293c6.166901,-0.7155 12.352997,-1.566956 18.577911,-1.213867c4.721802,0.099121 9.412048,0.734924 14.142151,0.622696c2.488007,0.438843 6.352783,-0.30542 7.642059,2.246902c2.253967,2.298096 0.720551,5.370193 -1.723053,6.749252c-1.900391,0.542236 -3.765167,1.245392 -5.210297,2.763916c-1.013885,0.416641 -2.299377,0.084747 -3.420166,0.206299c-3.920532,0.0681 -7.8862,-0.145523 -11.730072,0.742249c-3.219391,-0.25145 -6.174713,0.60025 -9.023132,2.041092c-2.979797,1.84816 -6.75531,1.492294 -10.016052,0.728119c-3.028229,-0.82724 -6.321014,-2.685486 -9.462494,-1.390671c-3.820892,1.44313 -7.709137,2.724319 -11.554504,4.110443c-6.25293,2.0522 -12.585052,4.110947 -19.210968,4.440323c-7.05896,0.430267 -14.149719,0.579071 -21.21701,0.33316c-2.757843,-0.068848 -5.379028,-1.400986 -8.130066,-1.207047c-4.420654,1.036301 -9.04129,1.205536 -13.269012,3.011322c-4.136414,1.57225 -8.599701,1.779816 -12.832947,2.988632c-2.307434,0.024216 -5.894287,0.187897 -3.825958,3.344498c1.299866,5.09227 1.674133,10.386383 2.092285,15.612915c0.38916,2.816559 -1.092285,5.644501 0.589417,8.247849c1.636292,4.699097 4.257721,9.015961 5.349518,13.903c0.879181,3.168655 1.654205,6.39418 2.139465,9.631088c2.715485,3.610413 6.009521,6.78595 8.539917,10.556061c4.794922,6.657196 7.838013,14.346161 12.253357,21.238434c3.871124,6.656433 8.392639,12.899261 12.465729,19.425079c1.450714,2.519287 1.476685,5.549011 2.733154,8.164886c1.322083,3.066315 2.49231,6.227692 2.638336,9.602692c0.199219,2.706665 1.133667,5.637543 -0.407074,8.134125c-1.900116,2.205017 -4.822144,3.944 -7.648376,4.789642c-2.754822,0.184113 -6.236511,1.435791 -8.401184,-0.916016c-1.920807,-1.749542 -3.777039,-3.576263 -5.828979,-5.175507c0.113007,-2.237549 -0.67337,-4.889496 0.993195,-6.681152c1.031281,-0.567963 1.87439,-1.188904 1.509186,-2.483215c0.039856,-2.930634 -0.182343,-5.932892 0.827759,-8.738159c0.029755,-2.973755 -3.542236,-4.257965 -5.163147,-6.399933c-3.070343,-3.040344 -6.399719,-5.792419 -9.838013,-8.398682c-4.330627,-4.243378 -8.501068,-8.698059 -11.832947,-13.790344c-1.908966,-2.386841 -3.066559,-5.194916 -3.994171,-8.077362c-1.622437,-3.970215 -2.375031,-8.22995 -2.393677,-12.510132c-0.408081,-3.182007 -3.323334,-5.178955 -4.938446,-7.749908c-2.106659,-2.622528 -4.476135,-5.074509 -5.829956,-8.207123c-2.507935,-2.442856 -1.924835,4.344849 -3.094574,5.909149c-1.182831,4.6073 -2.577271,9.216614 -3.055695,13.960358c-0.389923,7.263 0.579803,14.532288 0.152069,21.787476c-0.094086,2.091278 -1.243866,4.014343 -1.656494,5.974243c2.449921,5.840302 1.197479,12.308594 2.409332,18.385223c1.054474,5.623932 1.510712,11.325531 2.089264,17.008972c1.710449,9.510895 1.594421,19.223572 1.538177,28.851227c-0.960876,10.465515 -1.422424,21.00415 -3.354828,31.357178c-1.20578,8.87381 -3.268829,17.798615 -2.296814,26.79953c0.188141,4.878174 0.151825,9.783295 -0.249939,14.637238c0.788635,3.104889 1.690796,6.19516 2.113983,9.389343c0.972748,6.221649 1.698334,12.681366 0.015625,18.857635c-2.360382,8.783295 -5.28418,17.496948 -6.009033,26.622742c-0.411072,4.945007 -0.654724,9.926056 -0.42395,14.884399c0.169739,3.076904 3.532898,4.063019 5.422668,5.939453c2.105164,1.730103 3.880676,4.030212 6.682159,4.65564c3.090027,1.256042 6.040558,3.26355 7.84433,6.115967c0.560394,3.230774 -3.929596,2.993713 -6.071838,3.513245c-3.973724,0.403503 -7.973969,1.276184 -11.975952,0.852478c-3.230499,-0.938232 -6.74823,-0.244629 -9.858673,-1.702393c-3.444885,-1.157654 -7.110687,-1.013855 -10.65567,-1.520813c-2.278931,-0.590149 -5.105637,-3.028992 -4.448395,-5.530823c0.876648,-2.996216 1.35434,-6.224487 3.423676,-8.670837c1.870605,-4.958344 1.382599,-10.380768 1.755615,-15.581726c0.177551,-6.201965 -0.532928,-12.394379 -1.123322,-18.556488c-0.610107,-3.678925 -2.264801,-7.056946 -3.469604,-10.546204c-0.522797,-7.216614 0.036835,-14.504578 1.566711,-21.578918c0.585876,-4.040314 1.741974,-8.091736 1.454224,-12.195374c-0.588409,-3.148773 -1.907196,-6.181793 -1.664063,-9.451141c-0.152588,-7.52478 0.353333,-15.063171 -0.09433,-22.578888c-0.840607,-6.059753 -0.509705,-12.266754 -2.072617,-18.23114c-1.44664,-5.448914 -2.688751,-10.947723 -3.915741,-16.448303c-1.28624,-3.016907 -1.840332,2.131378 -2.032013,3.227966c-2.086243,8.235504 -3.726578,16.586761 -6.124802,24.74408c-0.895569,5.312683 -0.714996,10.739136 -0.784607,16.104065c-0.305664,5.785065 -2.297836,11.268494 -3.519775,16.882599c-1.387115,2.642822 -1.091034,5.445587 1.411346,7.216339c2.356598,3.35556 3.874878,7.255432 5.169449,11.128784c1.44664,4.758362 2.241333,9.687958 2.265305,14.664459c0.466324,5.19696 -0.53569,10.338898 -0.746277,15.519684c-0.618668,5.378021 -0.62674,10.854401 0.55687,16.16156c0.993942,5.627197 1.318024,11.407745 3.346008,16.804932c1.255463,4.395905 2.415359,8.923004 2.4832,13.51059c-0.368713,3.117249 -3.310181,3.921814 -6.009033,3.672119c-6.039047,0.312744 -12.235733,0.315247 -17.944534,2.585144c-2.86058,1.049133 -5.904297,0.875122 -8.879013,0.60022zm4.093246,-1.641846c2.641418,-0.602783 5.500031,-0.633057 7.785309,-2.31781c2.1978,-2.44635 5.284027,-2.978516 8.437607,-2.60022c2.561646,0.169006 5.016861,1.626709 7.649872,0.80957c3.229996,-1.114746 3.270096,-5.210571 2.391663,-7.959534c-0.842865,-2.865082 -1.100113,-5.969727 -2.691528,-8.506927c-0.736954,-3.946991 -1.08197,-7.96463 -1.882965,-11.907593c-0.535934,-5.642822 -2.040085,-11.316437 -0.986633,-16.989014c0.861786,-7.573486 1.034805,-15.24176 0.56041,-22.846771c-0.388153,-3.881439 -1.212097,-7.714447 -2.772247,-11.299286c-1.108948,-2.900116 -2.145752,-5.927826 -3.946503,-8.472839c-3.497833,-1.397705 -2.529114,-5.313934 -2.130127,-8.27002c1.582596,-3.372498 2.341736,-7.111206 3.34198,-10.70285c0.682709,-4.766174 0.991669,-9.600677 0.794693,-14.422333c-0.08197,-3.311218 -0.363174,-6.715973 0.8918,-9.868042c2.889511,-10.033722 5.391388,-20.222534 6.639038,-30.603302c0.498367,-5.154816 0.610596,-10.40094 -0.046646,-15.536346c-0.901138,-2.311188 -2.48851,-3.781799 -5.064529,-3.33136c-2.642365,-1.033783 -2.15686,-4.623169 -1.563675,-6.818359c2.195694,-3.04361 1.097336,2.767944 1.472366,4.023438c2.711212,2.526825 3.096069,-2.618652 2.228241,-4.388641c0.091797,-2.88446 -2.747269,-3.55658 -4.776016,-3.758087c2.378799,-0.908203 1.456238,-3.485992 -0.990662,-3.098602c-1.290527,0.451447 -4.677383,-0.670868 -2.962143,-1.65799c2.111969,0.087494 4.279922,-0.235321 6.344727,0.274658c1.347275,1.610321 3.087997,3.355835 4.079407,5.019379c-0.797974,2.804779 -0.68045,5.965912 0.25322,8.744446c-0.250946,3.454712 4.486725,4.389374 4.957336,0.571747c0.281967,-1.982819 -6.135391,-0.444641 -2.999222,-1.997955c2.52861,0.358612 3.810318,-1.844879 2.416885,-3.925568c-0.088776,-2.503387 -0.932648,-5.461273 2.430496,-6.121796c2.532394,-1.141479 2.811081,-4.500854 -0.455231,-4.897308c-2.384598,0.242371 -2.967194,-4.416107 -1.814102,-4.92984c-0.062302,1.924072 2.819138,4.304382 2.967697,1.067566c-0.363678,-1.851166 1.286728,-1.993408 1.24437,-0.138458c2.263275,1.531647 2.045135,-2.152313 2.726837,-3.071594c3.468323,-0.286774 -2.491516,6.199188 1.767456,4.429199c3.037811,-0.471619 1.764435,-5.075623 3.47641,-5.695038c0.598969,1.060028 -0.588165,3.613861 1.385101,3.175781c3.24234,0.660767 -1.779053,1.231781 -2.416626,2.334167c-1.49054,1.637299 -3.339203,2.880157 -4.305664,4.930328c-0.077667,1.020447 3.445374,-0.651672 3.276398,0.673645c-1.609558,0.738708 -6.404999,-0.008057 -5.49881,2.599243c1.442871,-0.587891 4.467316,-1.391937 4.939178,0.674896c-2.354095,-1.138458 -6.497803,-0.020416 -4.794922,3.274109c0.498871,2.328369 1.910187,6.1185 -1.040588,7.257965c-2.083725,1.791656 -4.897324,3.748779 -5.2547,6.671326c1.014374,2.933167 -0.129135,5.826202 0.234802,8.835754c0.639847,5.739441 2.364166,11.285431 3.384842,16.958771c1.482956,5.87384 3.724564,11.608734 4.034012,17.722961c0.292816,3.86377 1.274139,7.742432 0.459534,11.605194c0.065826,3.757599 0.658752,7.518494 0.083221,11.272308c-0.12738,4.367188 -0.613373,8.810791 0.11676,13.142151c0.358643,2.90744 2.884735,4.914459 1.526093,7.830475c-0.301636,1.606781 2.35434,3.047882 0.545013,4.246124c-1.813354,3.304138 -2.095825,7.202454 -2.773987,10.854126c-0.718536,5.499847 -0.411865,11.05542 -0.427734,16.585022c1.683197,4.014099 3.784576,8.019623 3.687469,12.49472c0.031799,3.968719 0.530151,7.906128 0.876434,11.848358c-0.125092,3.916229 -0.397247,7.830444 -0.318542,11.747223c-0.169983,2.807037 -0.518524,5.614075 -1.036072,8.370667c0.320068,1.498108 3.434784,2.691071 0.362671,3.064301c-3.01358,-0.620422 -4.20929,2.534668 -3.886475,4.950745c0.924591,3.089539 3.952057,4.857483 7.150787,4.184082c2.606781,0.221985 5.938416,-1.959595 7.263245,1.452698c1.550293,1.488037 4.792145,3.039124 6.461243,0.940735c1.20755,0.093323 3.051178,2.469116 4.964386,1.238342c1.72937,0.49939 3.057251,-2.950806 1.151825,-2.834778c-2.380066,0.852478 -3.620392,-2.73645 -0.651184,-2.348022c2.472595,0.237061 2.205017,6.171448 4.991882,4.269836c0.001282,-0.877686 -0.493317,-4.69104 0.522064,-2.315247c1.306427,2.53717 1.356628,-0.638062 2.103638,-0.784363c0.681458,2.206787 2.97879,1.939453 2.386627,-0.522095c0.430756,-1.240845 -1.015381,-1.56366 -1.773499,-2.166382c-2.658508,-1.296387 -5.394684,-2.446411 -8.11673,-3.583862c-2.021912,-1.684753 -3.627441,-3.851196 -5.881165,-5.281158c-2.021423,-1.031555 -3.164917,-2.721313 -1.589386,-4.741486c0.995453,-4.312683 0.508698,-8.789337 1.04715,-13.165344c0.265808,-5.1745 0.688019,-10.391357 2.405029,-15.32019c2.164429,-7.745972 4.118011,-15.639984 4.561615,-23.69693c-0.038574,-3.470612 -1.03125,-6.833252 -1.614105,-10.216827c-0.344513,-2.73996 -0.93692,-5.781311 -4.068329,-6.079407c-1.640076,-1.234039 -0.916504,-3.11499 1.069611,-2.993927c1.232788,-2.391663 1.115265,-5.46579 1.222198,-8.17749c0.011078,-3.753326 -1.147797,-7.484192 -0.22522,-11.221863c1.867065,-10.926514 3.030762,-21.959747 4.870331,-32.892059c0.741486,-4.459259 0.669342,-8.990387 1.226471,-13.469025c0.397736,-10.875092 0.345001,-21.841461 -1.446899,-32.599762c-1.660278,-5.228973 -1.223969,-10.82666 -2.168457,-16.193573c-0.468353,-4.088745 -1.208313,-8.161377 -1.416382,-12.270538c0.035797,-2.057251 1.403015,-7.115967 -2.082703,-6.2789c-2.599243,1.552307 -5.434784,2.571991 -8.39743,3.196442c-1.817627,-0.328613 -2.957855,4.588104 -3.64917,1.409088c0.749054,-3.140717 4.774506,-2.559387 6.544495,-4.827209c2.379547,-1.125092 4.724304,-2.618652 6.336639,-4.748779c1.24942,-2.797455 2.037048,-5.898071 1.447662,-8.966888c-0.397736,-6.055969 -0.937714,-12.203186 0.377533,-18.191315c1.333679,-8.771149 5.557098,-17.131668 4.723297,-26.186996c-0.320526,-3.321762 -0.312714,-6.686859 -0.871094,-9.97818c-2.140228,-1.840363 -4.728607,1.611008 -6.977783,2.054138c-4.327576,1.943481 -9.21051,1.304779 -13.830902,1.492645c-1.159882,0.010315 -2.319794,0.02066 -3.479675,0.030975c-0.500366,-2.855011 3.874878,-1.464783 5.552795,-1.96199c3.636047,-0.115479 7.488464,0.03862 10.729309,-1.8992c1.439087,-1.155457 3.525055,-0.990311 4.59668,-1.534164c0.721832,-1.857742 -0.557617,-5.885635 2.714478,-4.917084c3.576019,0.881409 4.096588,-3.820175 5.132385,-6.185074c0.661774,-2.165466 2.110443,-6.558044 -0.847168,-7.407211c-2.709686,-1.174271 2.072876,-3.539703 3.267822,-4.550293c1.732666,-1.705658 5.80954,0.112488 6.220154,-2.773239c-1.303925,-3.11171 -4.119019,-5.951279 -7.672607,-6.138168c-3.151794,-0.369232 -5.714691,-2.813095 -8.983521,-2.640076c-1.080719,0.070862 -0.290802,-1.591171 -0.533936,-2.296082c-3.550781,-1.814362 -7.563629,-3.500351 -11.630676,-2.91069c-4.316254,2.088257 -8.001953,6.150772 -13.156525,5.952545c-2.586121,-0.88147 -4.76416,0.069595 -6.883179,1.262527c-1.933151,-1.122818 3.180801,-2.229996 1.833771,-4.379288c-1.479675,-2.325836 2.872375,-4.991135 0.733673,-6.583298c-3.616867,0.408569 -7.267044,0.352325 -10.901306,0.485229c-1.980072,-1.945511 -3.381577,-4.504379 -5.999466,-5.716476c-2.152313,-2.304901 -2.988876,0.969482 -2.112961,2.743988c0.807297,3.27565 -3.594376,3.059753 -5.579208,4.227463c0.672638,2.264297 4.272278,2.760895 6.295212,3.948776c2.900864,1.044891 5.819122,2.161911 8.8181,2.849915c1.362152,0.065826 5.437286,2.069855 3.102875,3.15686c-2.951309,-1.695831 -6.530594,-1.27037 -9.592865,-2.71196c-2.141479,-1.901123 -5.061783,-1.912979 -7.464264,-3.47641c-2.275803,-2.208542 -5.481873,-0.514999 -7.742371,-1.989883c-1.674637,-0.708191 -5.796402,-3.435547 -6.149765,-0.246414c-0.160828,3.43454 1.174927,6.66452 1.344223,10.066513c0.654663,3.773239 1.120834,7.642319 2.446976,11.248596c2.570572,2.126343 0.44693,4.693283 -0.203354,7.188721c-0.818451,3.450073 -1.436768,7.651581 1.249878,10.47226c1.603546,2.451767 4.535355,3.281693 6.741394,4.975174c-0.87709,1.516861 -4.274323,-1.356628 -5.847809,-1.927673c-2.784042,-2.035019 -4.968307,-4.885406 -6.34169,-8.040314c-1.982712,-2.309067 -2.456604,-6.20047 -5.399979,-7.456345c-2.515625,1.52243 0.663391,5.558517 0.432022,7.989304c0.339767,2.940155 1.381393,6.196945 3.976532,7.845535c1.019287,2.440262 0.574142,5.105896 0.917831,7.729416c0.191772,4.338623 1.185028,8.591904 2.928421,12.569641c1.460907,3.675339 3.557602,7.110489 4.369827,11.021164c1.384583,2.486969 0.282959,5.323517 0.298187,7.987305c-0.218582,2.408813 0.089005,4.81131 0.362625,7.200684c-2.222656,2.500885 -2.123611,6.041077 -2.742905,9.14447c-0.488495,3.174225 -0.951447,7.01532 1.78183,9.358063c2.066208,2.602997 5.871857,3.219147 7.546646,6.132355c0.973465,0.715759 1.529861,4.332123 -0.16275,2.409332c-1.117111,-3.262024 -4.422668,-4.02597 -7.001984,-5.681183c-2.858749,-2.763672 -3.414032,2.178558 -3.129135,4.235291c0.024261,4.36969 -0.095062,8.760315 -1.205338,13.014526c-0.630508,3.205017 -1.899353,6.300568 -1.677185,9.630188c0.246201,2.651184 -0.623962,5.709167 0.923065,8.030457c-0.030518,2.8638 -1.724121,5.517761 -2.03804,8.408264c-0.760422,4.191895 -1.205338,8.434753 -1.990936,12.622864c-1.030411,10.547974 -1.069077,21.186493 -0.529129,31.765747c0.292206,3.992645 0.938919,7.960327 1.673111,11.889435c2.262756,6.163635 1.526474,12.818085 1.501831,19.250549c0.053329,1.044647 -0.192947,2.191406 0.035675,3.176514c1.895523,1.816895 0.646255,4.651184 0.975998,6.94043c-0.06662,2.6474 0.976379,5.12027 1.365601,7.707916c1.499542,2.661774 -0.636124,5.388855 -0.140945,8.207001c0.003204,4.147491 0.201248,8.34494 1.295502,12.355255c1.033707,4.953827 3.194595,9.588074 5.08992,14.251617c1.794113,7.166626 4.14801,14.178192 6.465454,21.186462c0.992554,4.139191 0.401505,8.45694 1.093933,12.633453c1.736481,0.605286 2.888062,2.701141 0.339142,3.187866c-2.798065,0.996246 -4.981476,3.255981 -7.719193,4.456482c-2.258545,1.276123 -5.008682,2.332886 -6.285904,4.736389c0.118286,2.73645 -5.491058,1.377075 -4.992065,4.368225c-1.427689,0.494263 -4.442841,1.278687 -2.178879,3.081909c2.376755,1.064331 4.98967,-0.453918 6.869843,-0.802002c1.810043,1.4729 4.10556,1.598999 6.293701,0.978577zm-4.615082,-5.722534c0.062546,-1.571228 4.732025,-0.325317 1.587692,0.214355c-0.519379,0.052979 -1.160828,0.179077 -1.587692,-0.214355zm20.572159,-8.015076c-1.837814,-1.765442 3.527344,-0.174011 3.314484,-2.474152c2.036804,-1.674652 0.37149,3.828522 -1.630753,2.665802c-0.565704,0.002502 -1.135941,-0.045349 -1.683731,-0.19165zm0.805557,-22.191284c-1.522064,-2.480438 -2.084229,-5.368683 -3.182083,-8.026398c-0.912979,-2.983368 -1.543747,-6.051697 -2.824432,-8.908173c-0.99823,-4.745972 -2.723572,-9.312408 -3.501175,-14.114136c-0.976151,-4.185089 -1.967194,-8.413544 -1.697159,-12.747711c-0.491974,-1.500854 1.029526,-3.58609 1.08403,-0.869324c0.264633,3.474365 0.465546,6.967926 1.408951,10.33963c0.327805,5.330872 2.705597,10.218353 3.887939,15.374176c0.837814,2.898071 2.370468,5.585815 2.610565,8.641052c0.69458,3.42038 1.999237,6.66626 3.173248,9.933594c-0.038834,0.438599 -0.633041,0.577789 -0.959885,0.377289zm22.780899,-54.75296c-1.16922,-1.245605 -0.016388,-3.768188 0.798492,-1.153839c0.528381,0.77655 0.450958,2.480713 -0.798492,1.153839zm9.101074,-5.448883c-0.729889,-3.439056 2.911713,1.575531 0,0l0,0zm-48.533569,-1.529114c0.853363,-1.642853 3.388474,-0.261536 0.729462,0.369476c-0.242493,0.039856 -0.907242,0.109985 -0.729462,-0.369476zm43.629974,-2.939941c-0.890045,-0.875153 -0.578827,-5.233002 0.672607,-3.600494c-0.049683,0.738708 0.708191,4.234039 -0.672607,3.600494zm4.805481,-4.278931c-1.807281,-3.204254 4.907166,1.53241 0.296112,0.265076l-0.296112,-0.265076l0,0zm-31.716522,-97.381378c-1.497849,-0.187653 -5.625183,-2.642853 -1.862289,-2.631775c1.435806,1.871613 4.349274,1.740234 2.697586,-1.107697c-0.029755,-2.067322 -4.0784,-2.776764 -3.011078,-4.396179c2.524323,0.460297 3.496826,2.600739 5.216614,4.097076c0.901382,-0.425476 0.580063,-2.922546 1.559387,-0.552338c0.908691,1.95636 2.867813,1.362427 3.591141,-0.103149c2.069855,1.894318 -1.248917,4.320282 -3.370728,3.728088c-1.6875,0.927887 -2.67009,1.842133 -4.820633,0.965973zm-6.361618,-41.305145c-0.210342,-1.602264 -1.07515,-5.440063 0.630508,-5.876129c0.256744,1.272125 0.979309,5.871094 -0.630508,5.876129zm12.102051,-0.855713c-2.549286,-3.094055 5.416855,-3.920532 3.868576,-0.295105c-0.766449,1.090546 -2.80603,0.725098 -3.868576,0.295105zm20.010208,-1.045166c-0.145294,-1.152069 -0.982849,-4.961121 0.918762,-4.207764c-0.003265,1.453461 0.790161,5.295288 -0.696594,5.357819c-0.134674,-0.370209 -0.170715,-0.763153 -0.222168,-1.150055zm-25.362503,-26.293549c1.45018,-2.173325 2.837814,-5.03653 5.613068,-5.678574c0.719803,2.317825 -2.822922,4.858353 -4.907898,5.867081c-0.128128,0.087692 -0.724335,0.1521 -0.70517,-0.188507zm11.461212,-0.72702c-1.846405,0.094543 -3.373505,-3.307251 -1.502136,-3.67244c0.223709,2.302261 3.919266,2.533325 4.079666,4.227509c-0.892303,0.182831 -1.769226,-0.240631 -2.57753,-0.555069zm19.460648,-23.210464c-4.038574,-1.364578 1.24942,-4.984619 2.432495,-1.645966c0.862793,1.7034 -1.298096,2.076813 -2.432495,1.645966zm-48.74585,-1.584793c-1.310959,-2.613602 2.233688,-5.669098 3.155472,-1.961182c0.044327,1.392349 -1.947433,2.792847 -3.155472,1.961182zm19.99472,-37.434723c-0.940979,-1.527359 1.168961,-3.585602 1.116257,-0.932648c0.164948,0.5271 -0.722061,1.997711 -1.116257,0.932648zm-34.412674,332.595642c1.101486,-0.552368 1.577652,-3.470398 -0.028717,-2.015137c-0.693832,0.401001 -2.732468,4.721252 0.028717,2.015137zm-2.409943,0.020142c2.065125,-3.914185 -2.387421,1.591431 0,0zm88.623764,-1.793152c-0.758148,-2.57251 -2.017395,0.713745 -0.074646,0.406006l0.074646,-0.406006l0,0zm50.081848,-184.007538c2.168976,-0.485504 3.608826,-4.394928 4.708679,-4.390381c-0.634033,2.451447 1.563171,2.588867 2.128876,0.404541c-0.71048,-2.801239 -0.572021,-5.756317 -1.747803,-8.476105c-0.597473,-3.2146 -1.658234,-6.312958 -3.123047,-9.228455c-0.248932,-2.724304 -1.619659,-4.958069 -3.611084,-6.712677c-0.321045,-2.994415 -2.654449,-4.947235 -4.278137,-7.357574c-3.431763,-4.27713 -5.173737,-9.592377 -8.118225,-14.182251c-1.465057,-3.211334 -3.615631,-6.083191 -4.911194,-9.36261c-1.344269,-3.224426 -3.633026,-5.973969 -5.706635,-8.754791c-1.940979,-2.668457 -4.81839,-4.442657 -6.853424,-6.998138c-1.133423,-2.284058 -1.948029,-4.764984 -1.94577,-7.36293c-0.41864,-3.419098 -1.667816,-6.639862 -3.037048,-9.764832c-1.51651,-4.613831 -4.176514,-8.80722 -5.145233,-13.615189c-0.346283,-1.843994 -2.802002,-5.805496 0.850952,-5.036407c0.66153,-2.388 -1.710724,-4.858856 -1,-7.431946c-0.097626,-3.318039 -0.591187,-6.820404 -2.470612,-9.636032c-2.196198,-1.373505 -5.698822,-1.617889 -7.980255,-0.208069c-0.913757,2.621933 0.443359,5.925308 -0.443634,8.779816c-0.407074,2.78627 -2.29306,4.952576 -3.7034,7.263535c-0.313232,1.456512 -1.365936,2.736038 -1.575012,4.182724c0.375549,5.806732 0.779327,11.674286 2.546509,17.253571c0.468872,3.327087 2.924835,5.828156 4.53717,8.620621c3.365936,4.749451 7.082947,9.247406 11.164886,13.394897c1.134918,2.452209 -4.113983,-1.192169 -3.15332,2.39621c0.663788,7.6297 4.174744,14.837219 9.357544,20.426575c2.476654,2.791412 5.139954,5.423187 7.459473,8.344208c3.330872,3.191406 7.489746,5.388123 10.545715,8.888458c1.25647,0.933411 3.346497,5.088501 4.591888,2.541473c-0.928864,-2.406281 -2.95282,-4.270844 -4.056976,-6.638794c-1.599243,-0.962402 -0.584351,-2.979034 0.681458,-1.225464c1.722046,2.422943 3.723816,4.779022 4.781311,7.579285c1.092041,2.197968 0.891052,4.1185 -0.525848,6.190613c-0.944763,2.191406 -2.125336,5.329834 0.195953,7.086456c1.13443,2.252197 -0.796204,4.981049 1.146515,6.865784c1.337463,0.71701 2.850189,1.042114 3.929108,1.601227c1.784851,-2.130859 -0.417908,-5.594147 0.926849,-8.150757c1.171234,-1.203522 2.652954,-0.147797 2.117523,1.3367c-1.379822,2.353333 4.02771,5.093018 0.49231,5.745972c-1.282715,0.775299 0.444885,3.669861 -1.68927,3.102905c-1.641846,-0.018433 -3.308167,0.203278 -4.929596,-0.087799c-1.050934,-1.570221 -3.539703,-6.435516 -5.324554,-4.000702c1.570984,2.311432 3.043091,4.785339 5.021912,6.77951c2.479675,0.46936 5.718231,0.969971 8.145447,-0.163177zm-90.009186,-0.587646c1.380066,-1.141479 0.575287,-6.583557 -1.492294,-5.09201c0.242371,1.453705 -1.418411,6.127563 1.492294,5.09201zm77.498047,-3.595673c-1.740723,-2.094818 -1.144501,2.192932 0.467346,1.147278c-0.011597,-0.430267 -0.236816,-0.803528 -0.467346,-1.147278zm-116.309143,-111.009827c0.57901,-2.65744 0.944122,-5.430359 2.131134,-7.897278c-1.299698,-2.613602 -1.851624,-5.575241 -2.292343,-8.487198c-0.130615,-3.08876 -1.156143,-6.013077 -1.773376,-9.002716c-0.363251,-2.961884 -0.472153,-5.946487 -0.683182,-8.921494c-2.120682,-2.302628 -5.52298,-2.284729 -8.423279,-2.252441c-2.735535,0.666321 -5.589478,-0.744003 -8.277588,0.26683c-0.146255,1.204788 -0.393265,3.45546 -1.697815,1.31601c-1.542816,-0.364441 -6.74913,-0.965958 -5.61731,1.483459c4.028091,2.723312 9.360001,3.794937 12.075974,8.184052c2.189774,3.575775 4.656204,6.96843 7.071213,10.391617c1.82724,3.528091 2.110214,7.665009 4.222961,11.080643c0.872604,1.073837 1.600815,4.443558 3.263611,3.838516zm-7.937302,-9.889694c-1.036713,-2.506912 -1.404678,-5.416107 -3.17218,-7.540924c-3.163055,-2.546768 -3.513321,-7.230469 -6.769302,-9.644821c-2.598557,-1.21312 -5.073914,-2.713989 -7.685318,-3.864548c-4.994781,-1.61235 -10.055801,-3.400986 -15.382874,-3.277908c-6.049133,-0.208069 -12.25766,0.107193 -17.892426,2.534668c-2.43959,1.079437 -5.791641,1.979294 -7.964386,-0.089035c1.560394,-1.250931 4.932632,0.387131 6.944214,-1.351822c1.779556,-2.490021 -3.806793,-1.541718 -5.155075,-2.6996c-4.018631,-0.692307 -8.168671,-0.720795 -12.14267,-1.755096c-4.792648,-0.59848 -9.601944,-0.018906 -14.377953,0.398987c-7.192375,0.221191 -14.403168,0.450943 -21.594292,0.179825c-4.463776,-1.557114 -9.330078,-1.182327 -13.913895,-0.415878c-6.599205,-0.391174 -13.23143,-0.969727 -19.832909,-0.362167c-4.874863,-0.058517 -10.14822,-0.851959 -14.508347,1.929367c-2.184841,0.451447 -3.148022,3.912201 -0.085987,2.847641c2.135921,-0.431259 3.689251,-3.647141 5.732105,-1.549545c2.857735,-0.002274 5.469315,-0.373764 8.212814,0.173264c3.239563,-0.498611 6.505112,-0.338455 9.721733,0.188904c1.358383,-0.133163 5.732117,0.166458 2.339714,1.323318c-0.929634,0.637833 -1.889267,0.276413 -2.848907,-0.080704c-3.301628,-1.209076 -7.107895,-0.968216 -10.331329,0.362671c-1.720039,2.245377 2.922554,3.766174 4.772484,3.531876c2.680939,0.35939 5.366158,0.077179 7.834236,1.443878c2.44664,1.524078 5.498581,0.739975 8.229698,0.964172c4.026451,0.394699 6.335648,-3.651413 9.949493,-4.518494c2.749786,0.438324 5.582306,0.986877 8.391617,1.321548c2.993164,0.227234 6.004494,0.006302 8.993126,0.283478c0.933914,2.088257 -3.708427,0.953079 -5.005005,1.142746c-2.711205,-0.065826 -5.458221,-0.66507 -8.14547,-0.323837c-0.124084,2.006805 4.280418,1.979553 5.847626,3.08548c2.737183,0.579819 5.115982,1.941727 7.724281,2.925079c2.547272,0.762909 5.042839,1.693039 7.533363,2.610306c2.902374,0.397232 5.789368,0.909714 8.6978,1.264069c6.779266,0.299606 13.633194,1.855469 20.373367,0.307678c2.67186,-0.491547 5.262772,-2.811081 7.732864,-0.254227c3.085983,1.09079 6.419876,1.340469 9.591095,2.163925c7.901077,1.74147 16.047333,0.819412 24.040817,1.563171c3.119202,1.333405 7.110321,0.391678 9.723709,2.873367c0.994461,1.000244 2.935913,3.255463 4.422165,2.309189zm-52.415329,-13.277084c-1.432022,-1.283463 -5.323303,-1.466827 -5.393417,-3.287491c3.008057,-1.697083 4.795441,0.767975 6.885208,2.451187c0.807053,0.74501 5.728577,2.091034 2.850677,2.775513c-1.522324,-0.446899 -2.909698,-1.272125 -4.342468,-1.939209zm151.575195,6.194412c6.100342,-0.729126 12.172424,-2.083206 17.860168,-4.42897c4.576263,-1.335175 9.208252,-3.010574 12.815796,-6.237534c2.335175,-0.435059 3.954315,-4.480927 6.272095,-3.205521c-2.518036,2.862778 -5.902618,4.805008 -9.067291,6.866776c-1.21109,2.903641 4.210571,2.539703 6.147766,3.118011c2.765167,0.392441 5.528839,-0.479187 8.320465,-0.394958c6.33667,-0.193939 12.666016,-0.549042 18.971649,-1.207291c3.548767,0.001755 6.634979,-2.014618 10.053375,-2.697342c2.86203,-0.528122 5.460999,-2.112473 8.403717,-2.130371c1.227753,-0.156876 5.492523,-1.005798 3.723572,-2.228989c-2.459778,-0.388901 -5.96994,0.477676 -7.779266,-1.062286c3.919525,-0.554855 7.949249,-0.22345 11.911377,-0.357635c2.641602,-0.407059 4.93338,0.871887 7.404755,1.483231c2.489777,0.751816 4.931366,2.138947 7.602722,1.15686c2.34726,-0.115768 3.529602,-2.712723 5.738922,-2.885727c1.22876,-1.848923 7.324768,0.090027 4.677887,-3.208557c-0.156616,-1.955093 2.610077,1.033539 2.668091,1.943237c2.485718,1.388641 6.981049,-2.203766 3.718018,-4.083694c-2.777283,-0.414627 -5.702637,-1.474396 -8.485199,-0.923325c-2.143005,0.203278 -4.64386,2.642853 -6.50589,1.438828c-0.112213,-3.03479 4.225189,-1.796204 6.163391,-2.81839c3.335175,-0.713242 6.543701,0.847656 9.878876,0.799744c2.761139,0.182083 5.583832,0.523819 8.257172,-0.315521c1.792694,0.318283 6.648651,1.452713 5.845367,-1.637558c-2.190125,-1.685745 -5.426941,-0.643372 -8.054657,-1.001511c-5.894043,0.057251 -11.779755,-0.621185 -17.66925,-0.394196c-3.989349,0.461029 -8.049377,0.87616 -11.878082,2.131897c-1.979584,1.638565 -4.737183,0.978546 -6.988373,0.362411c-4.376251,-0.077927 -8.676331,1.102127 -13.067474,0.899872c-8.512421,0.137451 -17.028137,-0.039856 -25.523926,-0.550308c-4.560852,0.005539 -9.17923,-0.197479 -13.693207,0.4991c-2.069092,1.426727 3.803772,3.580811 0.131165,3.961639c-3.329132,-0.763672 -6.750275,-1.034546 -10.098297,-1.71701c-4.123566,-0.338715 -8.278381,-1.0923 -12.417816,-0.709702c-3.580566,0.7556 -7.253174,0.844131 -10.860962,1.326843c-0.33493,3.657227 -3.997192,0.139725 -5.644348,-0.736938c-2.623688,-1.194183 -5.306396,-2.429993 -8.268799,-2.326584c-3.68042,-0.112488 -7.236786,1.057495 -10.840027,1.647644c-2.680176,0.782089 -5.38913,1.499115 -7.853912,2.847153c-2.133392,1.709686 3.320038,2.913467 4.780548,3.513214c1.911194,0.005035 0.230774,3.280182 2.896332,2.736176c5.668793,-0.19194 12.042023,2.200226 14.642273,7.551514c0.190399,2.442352 1.577515,4.087234 4.149506,3.112473c0.553864,-0.046417 1.107697,-0.092316 1.661774,-0.136703zm101.397278,-18.016266c0.334656,-1.468582 1.614624,0.95636 0,0zm-110.85495,12.623611c-0.254211,-2.074631 -3.572998,-1.027725 -1.276672,0.396729c0.367981,0.070358 1.314758,0.255478 1.276672,-0.396729zm-222.066521,-4.948761c-0.741234,-1.758621 -3.668312,0.590164 -0.615379,0.577042c0.296844,-0.017654 0.627235,-0.256241 0.615379,-0.577042zm-18.007935,-1.049423c1.505901,-1.802765 5.043839,-0.842361 5.975983,-2.307922c-2.305401,-1.168213 -5.532608,-0.275406 -7.454163,1.405777c-2.143234,1.211349 -0.558132,2.631012 1.059772,1.17276l0.418407,-0.270615l0,0zm3.248894,0.517532c3.449165,-1.962677 -4.306141,-0.665833 -1.39444,0.386368c0.482967,-0.054733 0.945263,-0.208572 1.39444,-0.386368zm198.244995,-0.026749c2.335663,-1.904144 4.966431,-3.460754 7.659973,-4.794159c3.055969,-0.385117 0.842377,-2.907669 -1.130371,-2.852188c-3.580322,0.082474 -3.551575,-3.278412 -2.809082,-5.957336c0.485504,-1.874893 -0.722046,-4.026199 -2.299591,-1.661026c-2.13089,1.997971 -5.157593,3.366943 -6.344971,6.179276c-0.100891,2.826721 -2.977539,5.352051 -0.670624,8.026932c0.995453,1.958878 3.885223,1.660019 5.594666,1.058502zm-202.894901,-2.467819c1.913998,-2.100616 4.070347,-2.111206 6.645107,-1.632782c1.497093,0.631531 4.950027,-1.246643 1.802757,-1.4711c-2.230759,-0.083481 -4.55003,-0.376801 -6.748253,-0.263062c-1.785599,1.201004 -3.749023,2.096588 -5.66325,3.028229c-2.537952,2.773499 3.333126,1.760391 3.963638,0.338715zm376.753696,-2.391403c0.372253,-1.712982 -4.435028,-1.309708 -4.276398,-0.082733c0.847168,1 3.184845,0.436829 4.276398,0.082733zm5.32605,-0.887268c-0.684479,-1.756851 -6.06955,0.321823 -2.449402,0.591675c0.671875,-0.157379 2.283966,0.303406 2.449402,-0.591675zm-215.055206,-0.176544c0.299118,-2.60199 -3.164993,-4.361374 -4.10405,-6.826431c-1.017273,-2.624939 -2.974182,-1.237564 -3.107681,0.950058c-1.517883,2.376022 -0.212952,4.347015 2.40448,4.703873c1.559891,0.325607 3.197052,2.068344 4.807251,1.172501zm219.747986,-1.865555c1.524597,-2.50415 -3.020386,-0.619919 -4.337646,-1.090286c-2.861786,0.075668 0.035034,2.733902 1.602234,1.668594c0.910736,-0.108444 1.942505,-0.042374 2.735413,-0.578308zm-7.13916,0.100128c0.174286,-2.411331 -4.516235,-0.787384 -6.075104,-0.348297c0.47287,1.278931 4.588104,0.545273 6.075104,0.348297zm-222.287842,-1.364182c1.074448,-2.216629 2.195847,-4.658981 2.455215,-7.147995c0.393997,-5.476883 -1.191666,-10.808243 -2.909698,-15.933548c-2.295135,-5.236801 -4.924194,-10.332092 -8.02124,-15.137344c-1.118881,-2.653702 -2.797058,-5.733887 -1.835892,-8.64711c0.563416,-2.639328 -0.29187,-5.579529 1.459366,-7.972961c3.900833,-7.437775 9.03096,-14.224861 12.008698,-22.138542c2.263611,-5.443604 3.165527,-11.314934 4.858475,-16.942131c1.054413,-4.699844 2.846832,-9.172943 5.099075,-13.422096c1.149277,-2.7556 3.055115,-5.033249 4.992203,-7.253929c1.619904,-1.490768 -2.563187,-2.258484 0.005615,-3.628464c1.00119,-0.39016 5.314651,2.028481 3.440765,-0.39344c-1.578552,-2.552071 -4.5298,-2.270103 -6.260406,-0.134674c0.01503,-2.294563 -2.793381,-6.554054 -4.072189,-2.702888c-0.004211,2.893547 -3.842361,3.501617 -5.127014,6.023666c-3.927414,4.011314 -6.159378,9.218338 -8.994247,13.972153c-4.510483,6.012817 -8.711716,12.285927 -12.450577,18.811974c-1.731079,2.709946 -2.173279,5.926315 -3.722061,8.714188c-2.970779,6.074867 -4.89946,12.598404 -6.111893,19.239204c-0.514816,2.045639 -1.74382,3.887497 -2.401917,5.838806c0.530136,3.088501 0.462219,6.384308 1.899673,9.21431c-0.854538,2.819397 0.443283,5.690491 0.73291,8.520996c1.266937,6.301086 2.409729,12.628159 4.020966,18.855103c0.895782,3.504898 1.709259,7.037018 2.802979,10.486679c2.534882,0.428253 5.518799,-0.496338 8.27533,0.343506c3.054459,0.292053 6.174774,0.408066 9.070572,1.523315l0.41362,0.01564l0.371674,-0.104416l0,0zm31.662216,-0.087769c0.259262,-1.124329 0.801514,-2.961395 2.164673,-1.540207c0.590668,3.686218 4.826706,0.776794 6.421143,-0.709198c2.123062,-1.843124 4.496811,-3.467316 6.375748,-5.546249c1.030762,-2.382324 3.21991,-4.930603 2.528107,-7.611557c-1.029755,-0.722046 -6.197693,0.888535 -3.835541,-1.199478c2.780548,0.159393 4.618622,-2.441345 4.788879,-4.9702c1.761383,-2.197464 -2.635803,-5.81636 0.994934,-6.219635c0.607574,-2.571732 1.069611,-5.270325 0.324097,-7.869553c0.958374,-2.302628 0.630493,-4.983826 -0.417908,-7.319992c-0.795471,-2.743484 -3.19519,-4.380798 -5.576752,-5.671082c-2.499115,-1.93895 -5.544739,-2.597717 -8.657959,-2.320801c-4.264023,0.088272 -8.597916,-0.005798 -12.783768,0.889786c-3.733643,1.504654 -7.483963,4.138687 -8.626877,8.202972c-0.615128,2.947006 -0.27858,6.018616 -0.239487,9.010529c0.086624,2.31221 1.541901,5.379791 3.48204,5.956573c-0.511047,-2.349289 -0.992355,-4.895798 -0.689148,-7.457703c-0.804489,-2.281189 -0.903198,-5.107651 0.099945,-7.256195c-0.011856,2.885986 1.139511,5.69429 1.486298,8.522263c-1.267578,1.871368 -0.923584,4.580292 1.702881,2.618652c2.719025,-0.594208 5.879913,-0.635315 8.455688,0.546265c1.647644,2.864304 5.941193,-2.143234 5.538162,2.040588c-1.588882,0.115005 -4.042084,-1.177032 -3.153564,1.622696c0.617142,2.484222 -2.35585,3.373993 -2.411331,0.784103c-1.852951,0.458267 -2.284988,-3.136429 -3.891785,-0.206055c-0.686493,0.522568 -2.245636,-2.751053 -3.085724,-0.750809c-2.282715,1.678177 -1.041611,-1.83252 0.493561,-1.593185c2.095581,-0.060516 4.408051,0.645905 6.306137,-0.457748c-0.910461,-2.12735 -4.930359,-1.350052 -7.121262,-1.413849c-2.483963,0.770477 -3.259491,3.442078 -4.407791,5.427185c-0.628067,3.328857 0.39093,7.265274 3.567947,8.954041c-0.400253,1.508438 -3.943222,0.065063 -2.930618,2.768448c-0.141739,2.882965 1.271362,5.521271 3.377274,7.405746c2.372498,1.56015 4.267563,3.759384 6.578522,5.423935c1.02446,0.176285 2.138184,0.250183 3.143478,-0.060287zm0.750565,-5.614334c-3.079681,-2.209824 3.3228,-2.689011 3.051178,-1.211838c-0.633041,1.15509 -1.767715,1.803513 -3.051178,1.211838zm-4.020142,-3.708664c1.569962,-1.975281 4.800964,-0.960403 7.105865,-1.183853c1.104156,-0.446915 5.540436,0.9841 3.17627,1.538696c-3.372986,-0.241867 -6.808273,-0.335938 -10.162354,0.05574l-0.096588,-0.13443l-0.023193,-0.276154l0,0zm14.03949,0.316757c-0.993439,-1.412094 0.905151,-3.63327 0.840607,-1.092804c0.017639,0.50264 0.012848,1.754593 -0.840607,1.092804zm-18.593567,-0.752075c-0.640854,-1.197464 1.598984,-5.832489 1.440338,-2.474884c-0.018906,0.61235 -0.400497,4.790878 -1.440338,2.474884zm8.225922,-4.005768c-2.440842,0.271622 -5.229477,-1.959625 -2.665802,-4.134659c1.031769,-0.76947 2.579803,-4.012329 2.142471,-0.837814c-2.483963,0.880951 -2.117264,4.12381 0.695587,3.587875c1.666565,2.166687 7.787842,-1.222443 4.256714,-3.100616c-3.163147,-0.580322 1.10289,-5.588364 1.130386,-3.159119c-1.640854,2.347519 2.970459,5.839813 -0.822693,7.12883c-1.315506,1.084229 -3.19165,1.171234 -4.736664,0.515503zm3.810318,-11.38327c-0.85498,-2.508682 1.302383,-5.476379 3.916992,-5.526321c2.423935,-0.350815 4.933121,-0.233292 7.313431,0.326599c1.878937,-1.496063 -1.826202,-4.369186 0.671631,-6.221893c0.130646,-1.015381 0.263306,-4.701859 1.742493,-2.574005c-0.01236,2.859009 -1.669861,5.39946 -0.710724,8.315964c0.35788,1.196213 -1.103149,6.160858 -1.314728,2.756088c-1.612854,-2.4189 -5.37854,-1.667572 -7.912186,-1.456985c-2.497345,2.682205 2.98082,1.642105 4.472336,1.990402c1.615143,-0.378311 2.671112,2.651688 0.766449,2.043121c-0.803497,-2.856476 -3.366425,1.320541 -4.954041,-0.980835c-1.12233,1.328873 -3.081696,-1.041351 -3.433533,1.451691l-0.269608,0.046158l-0.288513,-0.169983l0,0zm-5.149277,-10.098038c-2.212341,-2.098602 6.579269,-1.019669 2.920029,0.141479c-0.973511,0.014374 -1.954086,-0.016647 -2.920029,-0.141479zm1.324081,-6.860992c-2.136429,0.09787 -1.852951,-2.071854 0.240356,-1.495819c1.875885,0.371994 5.363388,-0.791672 6.24585,0.865311c-1.952316,0.735687 -4.405258,0.931137 -6.486206,0.630508zm-14.923828,26.017471c1.492401,-2.786102 -1.993286,-4.276138 -0.913666,-7.08873c-1.343262,-2.676895 -2.938446,1.404282 -1.563248,2.738205c0.417679,1.275146 0.505432,4.994659 2.476913,4.350525zm35.657608,-1.616623c1.242371,-2.735931 2.512726,-5.876389 1.856232,-8.915451c-1.215118,-3.28801 -5.259003,3.658981 -1.890045,1.157623c0.614899,0.600998 -2.791656,2.609055 -0.769714,3.788116c-0.586395,1.569214 -2.412598,4.675125 -0.436066,5.549759c0.541748,-0.410583 0.882721,-1.016876 1.239594,-1.580048zm-38.123474,-7.207275c0.675858,-0.486755 2.515579,1.162155 1.896179,-1.082458c-0.749298,-3.454712 -4.303955,0.174774 -2.270523,1.463287l0.374344,-0.380829l0,0zm12.104233,-96.054794c1.575516,-2.244637 2.720535,-4.87941 5.517487,-5.94902c3.377029,-2.218384 -1.490784,-5.106133 -3.440582,-2.479671c-0.654465,1.064053 0.542236,3.144745 -1.480194,2.526329c-2.698334,-0.074642 -5.404495,3.109184 -5.66275,5.576756c1.029755,1.425476 3.893539,2.18486 5.06604,0.325607zm-6.684189,-0.92131c0.410843,-3.031757 3.711197,-4.547249 4.385086,-7.535133c1.128616,-1.72155 -3.615112,-2.641335 -0.912476,-3.502609c2.759369,-0.238846 1.04866,-4.651169 4.093292,-4.798962c2.001495,-2.228992 4.295044,-4.193169 6.295288,-6.425423c1.429245,-2.412342 -1.41185,-2.62925 -2.427231,-0.848175c-1.909943,1.961143 -4.064529,3.600479 -6.204498,5.259747c-2.52179,1.090279 -4.632248,2.999458 -5.704361,5.513195c-2.031311,2.560135 -4.406326,5.141449 -4.737366,8.545464c-0.653641,1.925079 0.555252,2.854961 2.13385,3.080181c0.666077,1.116005 2.173004,2.452179 3.078415,0.711716zm7.285446,-11.446331c1.744247,-2.552052 -2.005539,-2.254711 -1.483719,0.205303c0.174011,0.909702 1.173508,0.234303 1.483719,-0.205303zm2.130127,-3.181561c1.386612,-1.652943 -0.177551,-2.229748 -1.087509,-0.586628c-1.058762,0.99369 0.518021,1.6464 1.087509,0.586628zm1.13063,-9.233978c1.017639,-2.055969 6.716721,-0.646904 4.473618,-3.641331c-2.15712,0.466064 -5.536163,2.150299 -6.060989,4.342209c0.609314,0.0681 1.122299,-0.377556 1.587372,-0.700878zm1.575531,-3.358109c2.805527,-1.034805 -0.535431,-4.027462 -1.279449,-1.153088c-1.557617,2.095821 -0.370224,1.973 1.279449,1.153088z"/>
   </g>
   <g id="layer8">
    <path fill=" none" id="path8371" d="m174.094818,432.662628l11.691223,11.596375m5.841827,5.795685l12.068512,11.972198m5.843353,5.798187l10.74469,10.658173m6.597412,6.544708l11.502075,11.40976m6.220367,6.171478l8.864258,8.97345m-189.936859,-0.179077l12.996643,-12.340393m6.224915,-5.611542l8.117722,-8.02771m8.098053,-8.237l9.057953,-8.781799m7.537903,-7.487946l9.804459,-9.717468m6.412567,-6.360596l11.497528,-11.407227m7.362106,-6.915497l8.434494,-8.754028l5.218872,5.177765l3.581085,3.551056"/>
    <path fill=" none" id="path8730" d="m173.519043,32.874561l11.691223,11.598053m5.841827,5.795315l12.068268,11.972145m5.843323,5.796791l10.744965,10.659286m6.597412,6.544899l11.502045,11.410355m6.220398,6.170959l9.802948,9.72477m6.596191,6.543457l11.877319,11.782761m5.657227,5.612076l11.122498,11.034973m6.032715,5.983063l11.124817,11.03775m6.784271,6.728073l11.311432,11.222626m7.1651,7.108139l9.992371,9.912674m6.976013,6.920502l5.843597,5.796921l4.199188,4.164673l-6.605225,6.550766l-4.524597,4.490005m-6.975952,6.918991l-10.74646,10.662231m-6.032745,5.984558l-10.181519,10.09906m-7.349274,7.291473l-10.557281,10.472839m-6.791901,6.737152l-9.989563,9.911133m-7.916229,7.853424l-10.181763,10.100311m-6.406525,6.355804l-11.121979,11.03244m-6.224915,6.176544l-10.366394,10.282379m-6.032471,5.984833l-11.50058,11.40976m-6.977478,6.920502l-10.555786,10.471558m-6.223419,6.17395l-9.987579,9.909149m-6.601959,6.549774l-5.844864,5.798187l-4.317505,4.28244l-7.737396,-7.674591l-3.768951,-3.740204m-4.901596,-4.862488l-12.065231,-11.969696m-6.785065,-6.72879l-9.426163,-9.351807m-7.731598,-7.669525l-9.236771,-9.165161m-7.163635,-7.104584l-11.123489,-11.036499m-6.78508,-6.731354l-11.126526,-11.036743m-5.652664,-5.607544l-12.065247,-11.969116m-4.90303,-4.864044l-10.744835,-10.65918m-6.597466,-6.544983l-11.124969,-11.036224m-6.597404,-6.544739l-11.314148,-11.224121m-5.840561,-5.793915l-11.124763,-11.03624m-6.78532,-6.731094l-4.902866,-4.864029l-4.508419,-4.472595l6.249138,-6.199448l3.959618,-3.928101m6.223667,-6.173737l9.048859,-8.976974m77.109917,-76.495544l11.682144,-11.589073m6.224915,-6.175491l11.309891,-11.219521m6.032486,-5.984573l11.123505,-11.034798m6.411057,-6.360085l10.93132,-10.844086m6.412552,-6.361591l11.497528,-11.405743m-97.467072,96.496658l9.863922,-10.039017m-28.525154,28.745331l9.709137,-9.631714m-27.242226,27.025024l12.631561,-12.530807m-31.476021,31.805069l13.529999,-14.261688m146.337975,-144.524826l8.434479,-8.754791l5.218903,5.177265l3.581039,3.552559"/>
    <g id="g8735">
     <path fill=" none" id="rect2686" d="m58.490936,316.181274l6.251312,-6.199768l3.958939,-3.927979m6.225067,-6.174011l9.04834,-8.976868m77.108231,-76.495712l11.683472,-11.588837m6.225006,-6.175613l11.309662,-11.219223m6.032593,-5.984741l11.123535,-11.034683m6.411133,-6.360123l10.931122,-10.844376m6.41272,-6.36171l11.497345,-11.405365m-97.467789,96.496735l9.863297,-10.039429m-28.522583,28.745499l9.705551,-9.631958m-27.239685,27.025238l12.634003,-12.530487m-31.477356,31.804871l13.527847,-14.26178m146.338959,-144.524551l8.434265,-8.75499"/>
     <path fill=" none" id="path8732" d="m73.511917,132.660461l11.692932,11.598297m5.841217,5.795471l12.066269,11.972122m5.846466,5.796539l10.741272,10.659286m6.598343,6.545197l11.503662,11.410095m6.219742,6.170868l9.800201,9.725006m6.598343,6.543076l11.876938,11.783401m5.657745,5.611954l11.123535,11.034714m6.031006,5.983154l11.12616,11.037842m6.782349,6.72818l11.312805,11.222382m7.16507,7.108307l9.992615,9.91272m6.9758,6.920074l5.843323,5.797028l4.198212,4.1651m-200.014984,-198.419861l5.220779,5.177185l3.58046,3.552567"/>
    </g>
   </g>
   <g id="layer7">
    <g id="g7280">
     <path fill=" none" id="path2329" d="m148.466461,511.622803l-12.613007,0m28.280731,0l-12.481567,0m28.149231,0l-12.481567,0m28.012604,0l-12.21344,0m27.749634,0l-11.950531,0m27.886414,0l-12.218689,0m27.881165,0l-12.476318,0m28.143951,0l-12.476288,0m28.41217,0l-12.613007,0m28.149231,0l-12.481567,0m43.948456,0l-12.350128,0l-3.317596,0l-12.881165,0m44.079834,0l-12.613007,0m44.085114,0l-12.481598,0l-3.454224,0l-12.344849,0m-207.12915,0l-12.481583,0m-3.054642,0l-12.613007,0m-3.186157,0l-12.613007,0m-2.923203,0l-12.881165,0m-2.917999,0l-12.350143,0m-3.317596,0l-12.481567,0m-3.31752,0l-12.350174,0m-3.317558,0l-12.217125,0l-3.452141,0l-12.348053,0m-3.053612,0l-12.481064,0m-3.180855,0l-12.580414,0l-2.816505,0l-12.768654,0m-3.004196,0l-26.621948,0c-5.288109,0 -9.574646,-6.999512 -9.574646,-15.63147l0,-461.149014c0,-8.632481 4.667191,-16.291256 18.687675,-16.291256l16.801239,-0.057465m426.948486,-30.993862l23.601471,0.02613c10.073547,-0.26288 11.761261,10.292843 11.761261,18.925319l1.671906,489.540148c0,8.632507 -4.284912,15.63147 -9.574097,15.63147l-27.265991,0m-15.778137,-524.140364l12.676117,0.014038m-28.354309,-0.031441l12.581451,0.013985m-28.165009,-0.03123l12.392151,0.013722m-28.165009,-0.03123l12.392181,0.013722m-27.981049,-0.031019l12.208191,0.013563m-27.697113,-0.030704l12.202911,0.013512m-28.070404,-0.031125l12.392151,0.013722m-28.165009,-0.031178l12.486847,0.013828m-28.165039,-0.031231l12.581451,0.013932m-27.981018,-0.03102l12.113556,0.01346m-27.791809,-0.030809l12.018951,0.013301m-27.886414,-0.030914l12.486847,0.013827m-28.070435,-0.031125l12.297577,0.01367m-22.271255,-0.024711l6.498398,0.007203m-106.745407,31.319624l12.392227,0.012512m65.909485,0.066566l12.202911,0.012299m3.301804,0.002686l6.624573,-0.019981m-37.812805,-0.010201l12.113571,0.0112m-27.602478,-0.027496l12.202896,0.012299m-28.165024,-0.028389l12.392181,0.012512m-27.975769,-0.028282l12.392181,0.012932m-43.748611,-0.044586l12.581497,0.012726m-28.354347,-0.028656l12.581505,0.013302m-28.355934,-0.029232l12.583046,0.013092m-27.792267,-0.028442l12.299149,0.012932m-28.072548,-0.028809l12.393265,0.012512m-28.353264,-0.028656l12.580414,0.106781m-27.972099,-0.118137l12.199249,0.008152"/>
     <path fill=" none" id="path2332" d="m1.003456,511.622803c-3.467926,0 -6.278648,-2.79657 -6.278648,-6.246094l0,-184.270538c0,-3.449524 2.811234,-6.246063 6.278648,-6.246063l314.991722,0c3.464752,0 6.277588,2.796539 6.277588,6.246063l0,184.270538l0,0c0,3.449524 -2.812836,6.246094 -6.277588,6.246094l-22.907471,0"/>
     <path fill=" none" id="path2334" d="m-41.972843,511.622803c-4.414295,0 -7.9921,-5.600952 -7.9921,-12.50946l0,-369.033234c0,-6.907974 3.578316,-12.508911 7.9921,-12.508911l400.94379,0c4.416412,0 7.991547,5.600937 7.991547,12.508911l0,369.033234c0,6.908508 -3.575134,12.50946 -7.991547,12.50946l-18.186066,0"/>
    </g>
   </g>
   <g id="layer9">
    <g id="g9637">
     <path fill=" none" id="path8740" d="m174.719879,134.315292c0.003937,9.107452 -7.378143,16.492477 -16.484711,16.492477c-9.109558,0 -16.488129,-7.385025 -16.488129,-16.492477c0,-9.107895 7.378571,-16.49292 16.488129,-16.49292c9.106567,0 16.488647,7.385025 16.484711,16.49292z"/>
     <path fill=" none" id="path9629" d="m174.719818,167.083054c0.003937,9.107452 -7.378143,16.492477 -16.484711,16.492477c-9.109558,0 -16.488129,-7.385025 -16.488129,-16.492477c0,-9.107895 7.378571,-16.49292 16.488129,-16.49292c9.106567,0 16.488647,7.385025 16.484711,16.49292z"/>
     <path fill=" none" id="path9631" d="m174.719879,216.910355c0.003937,9.107452 -7.378143,16.492477 -16.484711,16.492477c-9.109558,0 -16.488129,-7.385025 -16.488129,-16.492477c0,-9.107895 7.378571,-16.49292 16.488129,-16.49292c9.106567,0 16.488647,7.385025 16.484711,16.49292z"/>
     <path fill=" none" id="path9633" d="m174.719818,265.974213c0.003937,9.107422 -7.378143,16.492462 -16.484711,16.492462c-9.109558,0 -16.488129,-7.38504 -16.488129,-16.492462c0,-9.10791 7.378571,-16.49292 16.488129,-16.49292c9.106567,0 16.488647,7.38501 16.484711,16.49292z"/>
     <path fill=" none" id="path9635" d="m175.250946,298.605072c0.003937,9.107422 -7.378143,16.492462 -16.484711,16.492462c-9.109558,0 -16.488129,-7.38504 -16.488129,-16.492462c0,-9.10791 7.378571,-16.49292 16.488129,-16.49292c9.106567,0 16.488647,7.38501 16.484711,16.49292z"/>
    </g>
   </g>
   <g id="layer6">
    <g id="g3612">
     <circle fill=" none" id="circle2273" transform="matrix(0.525762, 0, 0, 0.525762, -7.65265, -12.5987)" r="62.3555" cy="186.813" cx="316.023"/>
     <circle fill=" none" id="circle2275" transform="matrix(0.525762, 0, 0, 0.525762, -7.65265, -12.7486)" r="62.3555" cy="62.384" cx="316.023"/>
     <circle fill=" none" id="circle2277" transform="matrix(0.525762, 0, 0, 0.525762, -7.65265, -12.4484)" r="62.3555" cy="311.241" cx="316.023"/>
     <circle fill=" none" id="circle2279" transform="matrix(0.525762, 0, 0, 0.525762, -7.65265, -12.298)" r="62.349" cy="435.67" cx="316.023"/>
     <circle fill=" none" id="circle2281" transform="matrix(0.525762, 0, 0, 0.525762, -7.65265, -12.1476)" r="62.3555" cy="560.098" cx="316.023"/>
     <circle fill=" none" id="circle2283" transform="matrix(0.525762, 0, 0, 0.525762, -7.65265, -11.8474)" r="62.3555" cy="808.956" cx="316.023"/>
     <circle fill=" none" id="circle2285" transform="matrix(0.525762, 0, 0, 0.525762, -7.65265, -11.9978)" r="62.3555" cy="684.527" cx="316.023"/>
     <circle fill=" none" id="circle2287" transform="matrix(0.525762, 0, 0, 0.525762, -7.65265, -11.697)" r="62.3555" cy="933.384" cx="316.023"/>
    </g>
   </g>
   <g id="layer4">
    <g id="g8717">
     <circle fill=" none" id="circle2257" transform="matrix(0.525762, 0, 0, 0.525762, -7.65026, -12.4399)" r="249.439" cy="248.884" cx="316.023"/>
     <circle fill=" none" id="circle2259" transform="matrix(0.525762, 0, 0, 0.525762, -7.65026, -13.4914)" r="249.439" cy="499.884" cx="316.023"/>
     <circle fill=" none" id="circle2261" transform="matrix(0.525762, 0, 0, 0.525762, -7.65026, -11.3884)" r="249.439" cy="744.884" cx="316.023"/>
    </g>
   </g>
   <g id="layer5">
    <g id="g3577">
     <circle fill=" none" id="circle2264" transform="matrix(0.525762, 0, 0, 0.525762, -7.65343, -10.4544)" r="124.72" cy="868.384" cx="316.023"/>
     <circle fill=" none" id="circle2266" transform="matrix(0.525762, 0, 0, 0.525762, -7.65343, -10.1039)" r="124.72" cy="618.384" cx="316.023"/>
     <circle fill=" none" id="circle2268" transform="matrix(0.525762, 0, 0, 0.525762, -7.65343, -10.2792)" r="124.715" cy="369.384" cx="316.023"/>
     <circle fill=" none" id="circle2270" transform="matrix(0.525762, 0, 0, 0.525762, -7.65343, -11.506)" r="124.72" cy="122.384" cx="316.023"/>
    </g>
   </g>
   <g id="layer10">
    <path fill=" none" id="path9646" d="m-39.300625,168.481674l196.719921,342.278763l198.880539,-341.558228c-124.936554,-61.952644 -255.320496,-69.303658 -395.60046,-0.720535z"/>
   </g>
  </g>
 </g>
</svg>