<?xml version="1.0" encoding="UTF-8" standalone="no"?>
<!-- Generator: Adobe Illustrator 14.0.0, SVG Export Plug-In . SVG Version: 6.00 Build 43363)  -->

<svg
   xmlns:dc="http://purl.org/dc/elements/1.1/"
   xmlns:cc="http://creativecommons.org/ns#"
   xmlns:rdf="http://www.w3.org/1999/02/22-rdf-syntax-ns#"
   xmlns:svg="http://www.w3.org/2000/svg"
   xmlns="http://www.w3.org/2000/svg"
   xmlns:sodipodi="http://sodipodi.sourceforge.net/DTD/sodipodi-0.dtd"
   xmlns:inkscape="http://www.inkscape.org/namespaces/inkscape"
   version="1.1"
   id="Livello_1"
   x="0px"
   y="0px"
   width="595.28px"
   height="841.89px"
   viewBox="0 0 595.28 841.89"
   enable-background="new 0 0 595.28 841.89"
   xml:space="preserve"
   inkscape:version="0.47pre3 "
   sodipodi:docname="1289339476951449428vitruvian man.svg"><title
   id="title2869">Vitruvian Man</title><metadata
   id="metadata61"><rdf:RDF><cc:Work
       rdf:about=""><dc:format>image/svg+xml</dc:format><dc:type
         rdf:resource="http://purl.org/dc/dcmitype/StillImage" /><dc:title>Vitruvian Man</dc:title></cc:Work></rdf:RDF></metadata><defs
   id="defs59"><inkscape:perspective
     sodipodi:type="inkscape:persp3d"
     inkscape:vp_x="0 : 420.94501 : 1"
     inkscape:vp_y="0 : 1000 : 0"
     inkscape:vp_z="595.28003 : 420.94501 : 1"
     inkscape:persp3d-origin="297.64001 : 280.63 : 1"
     id="perspective63" /></defs><sodipodi:namedview
   pagecolor="#ffffff"
   bordercolor="#666666"
   borderopacity="1"
   objecttolerance="10"
   gridtolerance="10"
   guidetolerance="10"
   inkscape:pageopacity="0"
   inkscape:pageshadow="2"
   inkscape:window-width="1280"
   inkscape:window-height="750"
   id="namedview57"
   showgrid="false"
   inkscape:zoom="2.3319749"
   inkscape:cx="298.15801"
   inkscape:cy="420.80251"
   inkscape:window-x="-8"
   inkscape:window-y="-8"
   inkscape:window-maximized="1"
   inkscape:current-layer="Livello_1" />
<g
   id="g3">
	<g
   id="g5">
		<path
   fill="#C6C7C8"
   d="M190.324,421.076c0-59.557,48.277-107.837,107.834-107.837l0,0c59.555,0,107.834,48.28,107.834,107.837    l0,0c0,59.554-48.279,107.832-107.834,107.832l0,0v-0.749v-0.749c29.366-0.003,55.946-11.9,75.188-31.145l0,0    c19.244-19.247,31.146-45.823,31.146-75.189l0,0c0-29.366-11.902-55.947-31.146-75.191l0,0    c-19.242-19.246-45.822-31.146-75.188-31.146l0,0c-29.365,0-55.944,11.9-75.191,31.146l0,0    c-19.241,19.244-31.142,45.826-31.142,75.191l0,0c0,29.366,11.9,55.942,31.142,75.189l0,0    c19.247,19.244,45.826,31.142,75.191,31.145l0,0v0.749v0.749C238.601,528.907,190.324,480.63,190.324,421.076L190.324,421.076z"
   id="path7" />
		<path
   fill="#C6C7C8"
   d="M207.817,528.936c-0.197,0-0.391-0.082-0.53-0.222l0,0c-0.14-0.14-0.22-0.333-0.22-0.529l0,0V350.097    c0-0.198,0.08-0.391,0.22-0.531l0,0c0.14-0.14,0.333-0.219,0.53-0.219l0,0h180.707c0.197,0,0.391,0.079,0.531,0.219l0,0    c0.139,0.14,0.219,0.333,0.219,0.531l0,0v178.088c0,0.196-0.08,0.39-0.219,0.529l0,0c-0.141,0.14-0.334,0.222-0.531,0.222l0,0    H207.817L207.817,528.936z M388.523,528.185v-0.752V528.185L388.523,528.185z M208.567,527.433h179.205V350.847H208.567V527.433    L208.567,527.433z"
   id="path9" />
	</g>
	<g
   id="g11">
		<path
   fill="#C6C7C8"
   d="M294.986,438.153h-0.777v-0.777h0.777V438.153z M297.643,443.246h-0.277v-1.328    C297.643,442.028,298.197,442.749,297.643,443.246z M292.882,518.155c0.331,0.165,0.275,0.554,0.275,0.828    c-0.165,0.113-0.275,0.332-0.554,0.224C291.998,518.874,292.603,518.43,292.882,518.155z M290.723,520.312    c-0.169,0.224-0.667,0.39-0.5,0.774h-0.554C289.505,520.536,290.279,519.481,290.723,520.312z M305.117,521.862    c-0.277,0.222-0.444,0.666-0.832,0.554l-0.274-0.274c-0.333,0.163-0.223,0.554-0.223,0.828c-1.495,0.33-1.771-1.657-2.159-2.657    c-0.164-0.608,0.276-1.162,0.554-1.329c0.388,1.164,0.167,2.547,1.326,3.433l1.054-1.053L305.117,521.862z M302.959,484.659    c-0.997-0.387-0.336-1.385-0.5-2.104c0.888,0.112,0.334,1.384,1.05,1.882C303.347,484.547,303.234,484.771,302.959,484.659z     M301.905,478.014c-0.221,1.165,0.997,1.662,1.054,2.66c-1.107,0.555-1.054-0.833-1.607-1.331c0.885-2.88-2.104-5.204-1.052-8.192    C300.688,473.254,302.183,475.69,301.905,478.014z M305.891,428.854h-0.551l1.88-3.157    C307.551,426.747,306.611,427.966,305.891,428.854z"
   id="path13" />
		<path
   fill="#C6C7C8"
   d="M304.84,412.131v1.054l0.868-0.868C305.438,412.171,305.146,412.099,304.84,412.131z"
   id="path15" />
		<path
   fill="#C6C7C8"
   d="M306.168,412.688c-0.129-0.192-0.293-0.284-0.46-0.371l-0.868,0.868v0.274    C305.506,413.736,305.67,412.905,306.168,412.688z"
   id="path17" />
		<polygon
   fill="#C6C7C8"
   points="297.366,420.658 297.366,420.663 297.373,420.658   "
   id="polygon19" />
		<path
   fill="#C6C7C8"
   d="M298.694,422.208c0.441-1.104-0.493-1.876-1.321-1.55l-0.007,0.005v1.821    C297.863,422.429,298.474,422.708,298.694,422.208z"
   id="path21" />
		<path
   fill="#C6C7C8"
   d="M290.723,430.182c-0.575-0.481-0.92-1.06-1.209-1.66l-0.587,0.59    C289.305,429.939,289.744,430.637,290.723,430.182z"
   id="path23" />
		<rect
   x="294.208"
   y="437.376"
   fill="#C6C7C8"
   width="0.777"
   height="0.777"
   id="rect25" />
		<path
   fill="#C6C7C8"
   d="M297.366,441.918v1.328h0.277C298.197,442.749,297.643,442.028,297.366,441.918z"
   id="path27" />
		<path
   fill="#C6C7C8"
   d="M318.625,467.662v0.829h0.555C319.29,468.05,318.848,467.938,318.625,467.662z"
   id="path29" />
		<path
   fill="#C6C7C8"
   d="M326.099,476.688c-0.828-0.721-1.992-2.328-3.209-1.83C323.941,475.468,324.771,476.632,326.099,476.688z"
   id="path31" />
		<polygon
   fill="#FFFFFF"
   stroke="#000000"
   stroke-width="0.5669"
   stroke-linecap="round"
   stroke-linejoin="round"
   points="    242.39,509.407 242.888,508.576 242.111,509.407   "
   id="polygon33" />
		<path
   fill="#C6C7C8"
   d="M342.044,510.182c1.052-1.274-0.718-1.052-1.05-1.605C341.047,509.242,341.326,510.071,342.044,510.182z"
   id="path35" />
		<path
   fill="#FFFFFF"
   stroke="#000000"
   stroke-width="0.5669"
   stroke-linecap="round"
   stroke-linejoin="round"
   d="M244.899,510.859    c0.094-0.122,0.162-0.253,0.146-0.401C244.993,510.588,244.946,510.724,244.899,510.859z"
   id="path37" />
		<g
   id="g39">
			<path
   fill="#C6C7C8"
   d="M383.734,383.451c0.441-0.661,1.107-0.771,1.605-1.103c0.057-1.221-1.496-1.054-1.331-2.386     c-4.261-2.598-9.023-0.718-13.783-0.497c-6.645,5.538-15.835,0.39-23.919,2.383c-3.19,1.963-6.502,0.754-9.801-0.03l0.064-0.064     c-1.49-0.248-2.566-0.448-3.634-0.459c1.979-2.627,4.723-3.57,7.651-4.148l-0.039,0.04c4.321-0.844,8.631-0.966,11.849-3.588     c4.43-3.655,9.854-5.094,14.34-8.525c1.662-0.11,3.209-0.661,4.54-1.552c1.936-0.497,2.159-3.432,4.483-2.932     c0.997-0.609,2.767-1.162,2.659-2.659c-0.223-0.662-0.997-0.331-1.331-0.831c0.941-1.105,3.157-0.885,2.659-2.657     c-2.216-0.054,0.111-1.495-0.5-2.657c-4.98-2.104-8.358,2.604-12.79,3.488c-2.552,4.552-6.525,6.139-11.005,7.072l-0.023,0.023     c-5.197,1.109-10.855,1.303-15.073,4.587c-2.934,5.645-9.688,3.101-13.84,6.368c-3.544,1.16-7.751-0.057-11.685,1.052     c-3.099,1.937-6.254,3.819-9.798,4.537c-0.61-0.774-1.826-1.329-1.882-2.38c0.773-0.996,1.771,0.721,2.934,0.497     c0.719-0.164,1.107-0.885,1.328-1.549c1.496-1.438,2.99-3.099,3.432-5.314c3.381-0.444-0.605-2.547,1.052-3.986     c0.5,0.055,0.89,0.996,1.331,0.224v-1.054c-1.495-1.107,0.886-3.101-1.331-3.709c1.222-1.441-2.046-2.105-0.497-3.711     c-0.498-1.55-2.157-0.331-2.934-1.055c0.387-1.987-2.604-1.489-2.658-3.483c-2.103-2.715-5.701-0.942-8.248-1.054l-1.051-0.774     c-2.604,0.333-5.758-0.887-7.697,1.052c-1.883,1.605-2.326,5.371-5.591,4.763c-0.277,0.497-1.052,0.662-0.777,1.328     c1.774,1.273-0.11,2.714-1.106,3.707c-0.885,1.441,1.883,1.941,0.277,2.937c0.498,1.551-1.108,3.988,1.329,4.537     c-0.165,0.446-0.719,0.721-0.5,1.331c1.22,1.271,0.5,4.042,3.157,3.709l-0.277,0.279c0.554,1.382,2.326,1.438,0.831,2.932     l-2.657-2.159c-4.042-1.383-8.028-2.157-12.513-1.052c-3.707-2.438-8.359-2.879-12.732-3.709     c-2.049-1.383-3.157-4.597-5.871-5.038c-5.593-4.264-13.673-3.156-19.654-5.591c-3.708-0.83-2.547-5.98-6.643-6.368     c-0.554-2.437-3.655-1.771-5.314-1.883c-1.885,1.219-3.044-0.938-4.763,0.555c-0.164,1.105,1.165,0.998,1.549,1.826     c-3.763,0.888,1.662,3.211-0.498,4.542c1.662,2.38,4.373,3.375,6.92,4.26c1.993,2.991,5.76,1.662,7.974,4.209     c6.145,1.608,10.021,8.858,17.273,7.974c1.496,0.885,3.044,1.662,5.04,1.326c3.099,1.996,7.251,2.162,10.072,4.266     c-2.711,0.609-5.645,0.885-8.246,1.883c-4.709-3.157-10.795-0.611-16.168-2.16c-5.868,0.221-11.847,2.326-16.499-1.826     c-3.375,0.11-6.643-3.321-9.854-0.554c0.331,0.938,1.826,1.495,2.934,1.605c-2.049,2.105-5.258-0.941-7.143,1.605     c-0.552,1.438,1.164,0.774,1.552,1.603l-0.5,0.5c-0.606,2.216,2.049,1.219,2.934,2.16c-0.941,0.885,0.446,0.829,0.777,1.549     c3.986-0.498,8.084,0.941,11.959,0.831c2.437-1.271,6.091-0.554,8.748,0c8.746,4.428,18.6,0.441,28.179,1.331     c4.596,1.714,8.692-0.167,13.286,1.603c2.383,1.442,1.941,4.65,4.265,6.369c0.223,5.37,2.434,9.91,4.265,14.614     c-0.559,3.267-2.272,6.034-1.608,9.8c-3.268,5.204-1.883,12.29-6.922,16.773c-0.634,1.657-1.39,3.251-2.397,5.468l0.069-0.069     c-1.862,3.917-3.63,7.851-3.401,12.652c0.831,4.209-4.817,4.927-5.314,8.525c-10.739,10.076-13.786,23.364-16.224,36.927     c-1.657,2.716-3.93,5.704-7.474,5.595c-1.659,3.101,2.66,3.487,3.986,5.313c2.162,0.498,4.542,3.432,6.424,1.605     c0.665-1.552,0.888-3.214,0.775-5.094c1.939-1.992,1.718-4.872,2.38-7.42c1.165-3.706,4.209-6.643,5.871-10.074     c4.263-4.206,5.147-10.243,8.249-15.171c4.042-5.203,9.523-10.243,12.18-16.222c0.831,3.268,0.998,6.812,2.437,9.854     l-1.606,13.291c-3.157,6.92-1.051,14.616,0.498,21.536c1.328,4.704,5.924,8.359,4.54,13.783c1.718,2.549-1.329,5.15,1.608,7.199     c1.159,1.161,3.655-0.555,4.758,0.774c0.667,0.333,1.939,0.607,2.38-0.276l0.28,0.276c1.272,0.387,3.598,0.607,3.711-1.329     c1.326,0.941,2.768,1.662,4.537,1.329c3.878-1.438,8.361-0.667,12.734-0.276c2.324-1.662,5.48,1.162,7.474-1.329     c-1.326-3.819-5.979-3.099-9.577-3.154c-2.547-0.721-4.596-2.604-6.645-4.54c-2.879-6.479-1.273-14.231-1.329-21.538     c-0.664-3.655-0.941-7.418-0.772-11.404c1.217-1.607,0.498-3.984,1.826-5.593c-1.662-5.922,2.821-9.965,3.212-15.392     c3.265,3.933,3.098,9.246,7.14,12.734c0.996,6.643,2.604,13.011,7.972,17.83c1.551,8.023,12.405,12.233,12.236,20.982     c4.54,6.422,6.199-4.54,11.462-2.383c1.159-3.265,5.424-1.608,6.365-5.039c0.332-1.327,0.608-2.324-0.276-3.488     c-3.543,0.723-7.196,1.885-10.629,1.885c-2.437-1.162-3.657-3.821-5.04-5.871c-2.216-8.136-4.705-16.22-9.854-23.085     c-4.042-3.765-2.826-10.132-6.091-14.396c-1.55-10.02-4.706-19.32-9.577-27.901c0.608-6.535-5.537-11.35-2.934-17.771     c-1.662-1.383-0.057-4.042-1.329-5.594c1.321-2.214,1.843-4.746,2.268-7.316l-1.521,1.525c-0.403,1.58-0.793,3.164-1.243,4.742     c-0.555,0.164-1.608,0.938-0.834,1.605c1.662,0.995,0.057,3.319,1.331,4.483c0.164,1.937-0.11,3.706-0.776,5.313     c-0.996-0.443-2.935-0.443-2.935,1.052c0.776,0.885,2.272-0.057,3.214-0.498c0.387,12.791,1.549,24.969,0,37.979     c-4.322-3.376-6.148-9.41-8.805-14.337h-0.277c0.554,6.032,4.652,11.293,8.803,16.22c0.056,6.034-4.373,10.243-3.209,16.72     c-0.777,1.716-0.498,3.985-1.605,5.593c0.885,8.582,0.607,16.997,0.274,25.8c0.997,5.147,2.603,11.018,8.525,12.457     c3.104,1.383,6.701-0.719,9.305,1.88c-0.941,1.275-2.547-0.218-3.988,0.279c0.165-0.497-0.276-0.776-0.554-1.108     c-1.052,1.938-3.821,1.771-5.814,1.329c-2.323-0.718-5.147,0.497-7.474-1.054c-0.497,1.718-2.603,1.829-3.985,1.33     c-1.66-0.387,0.056-2.269-1.604-2.656c2.877-3.709-0.777-7.31-0.777-11.131l-1.328-6.42l1.051-0.5     c-8.805-11.681,2.27-24.802-1.051-38.533c-1.662-5.922-1.218-12.344-0.554-18.6c-0.11-0.334-0.498-0.279-0.777-0.279     c-0.772,1.107-0.331,2.272-0.554,3.711c-0.772,7.25-3.985,13.896-2.38,21.813c0,1.161-1.052,1.937-1.605,2.932     c0.887,2.216-1.66,4.099-0.775,6.37c-3.267,6.033,2.991,12.4-0.274,19.098c2.934,4.983-0.498,11.628,3.986,15.945l-1.052,1.107     c1.882,1.883,2.655,4.763,4.76,6.092c-0.056,0.608,0.331,1.88-0.774,1.605c-1.549,0.498-2.383-4.539-2.934-0.831v0.831     c-1.385,0.107-0.996-4.265-2.657-1.605l0.274,0.774c-0.885,0.167-0.441-1.162-1.329-1.551c-0.11,0.333-0.551,0.222-0.772,0.222     c-0.446-0.828-0.833-0.166-1.331,0v0.555c-2.437-1.438,1.383-3.712-0.829-5.314c0.939-7.586-5.65-12.734-5.816-20.21     c-3.432-9.08,2.826-16.884,1.829-26.297c0.387,1.438,0.164,3.601,1.882,3.985c-0.223-3.21-0.387-6.034-2.38-8.748     c-0.223-3.654-1.937-7.584-0.554-10.905c3.544-3.986,8.525-7.363,10.631-11.96c0.995,2.106,3.875,1.439,5.589,1.608     c1.387,0.054,2.494-0.997,3.156-2.161c0-0.665-0.221-1.162-0.774-1.606c-0.44-0.164-0.72,0.279-1.052,0.554     c0.443,0.224,0.164,0.722,0.277,1.053c-1.274-0.996-2.657,2.879-3.488,0c-0.831,0.169-0.718,1.22-1.826,0.83     c-1.272-0.998-0.998-2.324-0.279-3.487c0.113-0.388-0.331-0.498-0.551-0.775c-1.331,1.718-2.77,3.985-3.711,6.092     c-2.657,3.154-5.868,6.034-8.748,9.022c-0.441-6.42-0.838-13.649-0.861-20.936l-0.013,0.016c0.02-2.402,0.084-4.761,0.24-6.981     c0.333-1.994,1.549-3.545,1.882-5.536c0.998,0.162,2.047,1.657,2.88,0.498c-0.667-1.164-2.716-1.774-2.66-3.711     c0.777-2.604,0.61-5.425,2.16-7.696c-2.326-4.65-4.209-9.8-4.54-14.894c2.493-1.052,5.537,1.994,8.802,0.556     c2.38-1.938,7.199-0.223,7.697-4.542c-0.331-0.274-0.61-0.719-1.052-0.554c-0.774,3.324-4.652,2.492-6.922,3.768     c-2.49,0.718-4.927-0.113-6.919-1.331c-2.657-2.213-3.542-5.204-5.317-7.751c-2.049-2.49-4.981-3.044-6.919-5.812     c1.385-0.721,2.934-1.165,4.54-1.331c0.998,2.049,3.047-0.497,4.76-0.274c3.38-0.61,7.697,3.708,9.579-1.052l-0.774-0.831     c-2.821,4.152-6.533-0.554-10.408,0.552c-1.228-0.202-2.451-0.03-3.657,0.226l-0.054,0.054c-0.014-0.012-0.028-0.021-0.042-0.033     c-2.023,0.441-3.986,1.188-5.77,1.359c-4.43-1.55-8.305-4.206-12.237-6.92c0.777,2.935,4.43,3.932,6.646,5.868     c-3.711-0.44-7.697-3.93-12.514-3.763c-3.101-1.495-7.03-1.107-9.797-3.435c-3.601-1.879-6.091-6.419-10.133-7.196l-0.498,0.554     l2.878,1.881c-2.16-0.995-4.152-2.545-6.646-2.932c-0.162-0.277-0.662-0.388-0.498-0.832c0.667-0.223,1.662-0.44,1.829-1.33     c-2.988-0.385-3.375-3.986-6.091-4.483c-0.554-0.388,0.775-1.055,0-1.604c-1.937-0.889-2.765-2.603-4.758-3.214     c2.434,0.444,4.094,2.825,6.366,3.763c0.995-0.495,0.775-1.546,0.775-2.434c-0.665-0.718-1.608-0.718-2.383-1.05     c2.934-1.495,3.268,2.988,5.871,2.935c2.326,6.253,10.298,7.417,16.443,7.417c3.929,2.324,9.023,2.271,11.683,6.92l-1.054,1.329     c0.279,0.497,0.885,0.224,1.329,0.276c0.279-0.332,0.721-0.607,0.554-1.051l1.606,1.051c6.347,0.113,11.704,3.306,16.4,6.89     c0.033-0.007,0.063-0.012,0.096-0.021l0.5-0.5l-2.932-2.935c1.659-0.057,3.375-0.997,5.037-0.223     c0.662,2.103,3.044,0.056,4.54,1.052c1.272,1.051,3.265,1.33,3.709,3.156c1.385,0.111,2.434-2.323,3.708-1.051     c0.277-0.443,1.054-0.667,0.831-1.329l0.498,0.554c-0.275,0.332-0.718,0.605-0.498,1.05c0.777,0.554,1.772,1.388,2.657,1.051     c0.443,0.888,0.056,2.329,1.328,2.66c1.165-0.774,0-1.939,0-2.935c-1.495-1.992-2.655-2.159-2.436-4.762     c-0.441-0.221-0.167-0.719-0.219-1.05l0.775,0.498c-0.775,1.105,0.718,2.601,1.326,3.763c0.39,0.112,0.554-0.331,0.777-0.555     c1.108,0.942,0.221,1.662,0.554,2.935c0.331,0.833,1.659,2.049,2.38,0.777c1.216-0.832,1.605-2.05,2.16-3.157l-0.832-0.829     c-1.162,0.554-0.998,2.157-2.105,2.935c-0.885-1.275-0.495-2.547-1.329-3.988c1.608-0.441,3.488-0.055,4.763-1.328     c-0.441,1.218-0.167,2.656-0.276,3.985c0.776,0.554,1.218,1.605,2.158,1.605c0.168-0.274,0.662-0.385,0.498-0.829l-0.223-0.223     c1.476,0.763,2.81,0.743,4.092,0.357c-1.273,0.4-2.551,0.785-3.869,0.974c-0.054,0.995,1.108,0.165,1.328,0.774     c6.977-2.326,16.112-2.604,22.865,0.277c-3.985,1.826-8.248,4.704-11.68,7.694c0.941,0.94,1.439-0.718,2.38-0.555     c4.925-4.096,11.086-6.953,17.824-6.312l-0.024,0.024c1.622,0.19,3.246,0.552,4.87,1.251c6.699-1.603,14.837-2.27,21.816-0.773     c3.151-0.388,6.309-0.829,8.745-2.935h1.053c0.885,1.549,3.32,0.331,4.815,1.052c0.498,0.276,0.941,0.609,1.606,0.554     c-2.216,1.826-4.596-1.495-6.646,0.774c0.388,0.388,1.054,1.274,1.552,0.555c-0.331,1.107-1.552,1.107-2.381,1.605     c-1.051-0.611-1.051-2.16-2.38-2.16c-0.61,0.498-1.107,1.274-0.554,1.882c0.941,1.494,2.878,1.494,4.263,1.053     c0.831-0.554,1.716-0.998,2.382-1.883l-0.223-0.224l8.469,0.5l-2.932,0.832c-1.107-0.611-2.436-0.111-3.434,0.497     c-0.11,0.164-0.333,0.277-0.277,0.554c1.275,0.998,3.211,0.333,4.819,0.498c-0.834,0.276-3.932,0.556-5.871,0.83     c0.555-0.663,1.329-1.882,0-2.379c-1.218,1.992-3.099,3.208-5.591,2.656c-2.326,0.444,0.277-1.772-1.829-1.882     c-1.826,3.765-7.25,2.713-10.905,2.934c-4.596,1.385-10.464,1.937-15.168,0.497c-4.401,2.066-8.725-0.288-12.978,0.496     l-0.065,0.065c-1.193,0.188-2.098,0.479-2.986,1.045c-2.657-0.719-5.425-0.995-7.972,0.279l-2.105,2.101     c-0.718-1.105,1.995-1.495,0.279-2.38l-2.159,2.159c-1.439-1.88-2.604,2.326-4.486,2.88c-2.268,0.554-5.094,1.326-7.196,0     l-2.657-2.659c-0.554,0.334-0.61,0.888-0.277,1.331c1.052,2.101,3.267,2.654,5.037,3.488c2.879-0.279,5.814-0.279,7.754-2.66     c0.661,0.611,1.493,0.611,2.101,1.329c-0.597,3.352-1.354,6.624-2.188,9.877l1.526-1.525c0.288-1.741,0.537-3.495,0.94-5.194     c1.383-2.824,1.162-6.532,4.76-8.195c1.994-1.104,4.541-0.276,6.644,0c0.527-0.26,1.072-0.437,2.04-0.593l0.104-0.104     c4.568-1.084,9.83,0.809,14.437-0.631c7.808,2.049,15.059-1.551,22.588-1.108c1.774-2.101,4.597,0,6.366-0.774     c3.436,0.221,7.586-0.33,10.909-0.554c1.16-0.498,0-1.382,0-2.103l2.381-1.053C384.506,384.006,384.009,383.787,383.734,383.451z      M309.243,366.403l-0.224-1.552l0.224,0.498V366.403z M309.518,363.521l-0.498-0.828c0.111,0.166,0.224,0.331,0.498,0.274     V363.521z M311.125,363.246h0.275c0.112,0.497-0.057,1.826,0,2.38h-0.275V363.246z M311.125,368.561v0.277     c-0.721,0.331-0.553-0.498-0.776-0.831C310.738,367.894,310.846,368.34,311.125,368.561z M310.846,361.087l-0.497,0.554     l-0.274-0.774C310.349,360.866,310.738,360.754,310.846,361.087z M310.349,358.206c-0.941,0.444-0.221,2.881-1.882,1.553     C307.912,358.319,309.187,357.986,310.349,358.206z M306.086,356.326h1.055c-0.057,0.331,0.218,0.886-0.28,1.052     C306.143,357.709,306.029,356.875,306.086,356.326z M244.899,510.859c-0.094,0.271-0.167,0.557-0.129,0.925     C244.2,511.463,244.646,511.196,244.899,510.859c0.047-0.136,0.094-0.271,0.146-0.401     C245.061,510.606,244.993,510.737,244.899,510.859z M250.638,514.721l-2.657-1.328c-0.167-1.826,2.213-1.162,2.877-0.554     L250.638,514.721z M263.095,488.147c-0.72,0.719-0.941,2.104-2.103,2.104c-2.603,5.645-7.919,10.187-7.697,16.996     c-2.437,0.608-0.885,3.266-1.605,4.816c-0.941-1.661-3.155-0.997-4.54-0.828l-0.774,1.104c-0.721,0,0-2.324,1.328-1.881     c0.167-0.276,0.665-0.387,0.498-0.774c-0.498-1.495-1.552,0.662-2.106-0.833l-1.603,0.279c-0.333-0.776,1.385-0.61,1.883-1.331     c7.694-8.523,4.262-21.7,11.128-30.56c3.098-4.706,7.861-8.748,10.131-13.842c4.319-1.88,3.377-7.027,4.263-10.849     c1.713-3.46,2.828-7.194,4.371-10.765l-0.113,0.113c1.111-2.568,2.148-4.58,3.634-6.401c0.155,0.755,0.185,1.601,0.289,2.394     l0.007-0.007c0.906,7.254,0.199,14.904,0.837,21.529C277.269,469.93,264.812,476.854,263.095,488.147z M352.386,507.878     c-1.307,1.083-3.006,2.152-2.091,4.186c-2.88,0.167-5.925,0.995-7.199,3.986c-0.775,0.056-1.604,0.997-2.381,0.279     c-1.825-2.329-2.216-5.206-3.487-7.753c-2.878-4.152-7.199-7.749-8.746-12.457c0.274,0,0.662,0.056,0.774-0.277     c-0.387-1.105-1.883-1.771-2.878-2.657c-6.867-5.424-3.823-14.947-9.858-20.707c-1.937-3.097-1.326-7.194-4.76-9.577     c1.221-11.517,0.997-24.25,0.223-35.876c1.549,2.604,1.439,5.813,2.157,8.748c5.15,8.361,8.027,17.771,9.579,27.625     c2.713,2.881,2.324,7.144,3.432,10.632c5.538,8.194,10.962,16.386,12.236,26.353c1.993,2.99,4.263,8.469,8.746,7.417     c1.607-0.719,3.544-0.719,5.319-1.049l1.811-0.551c0,0-0.181,0.958-1.379,0.199s-0.439,0.16-0.439,0.16l-0.1,0.46l1.179,1.059     h0.479c0,0,0.599,1.1-0.84,1.559s-2.077,0.779-2.157,0.919s-1.018-0.818,0.68-1.099s2.057-1.119,1.857-1.559     s-1.079-1.02-1.079-1.02L352.386,507.878z M298.694,523.192c-2.66-2.713-2.324-7.087-4.76-10.076     c-1.331-3.542,0.554-7.418-1.605-10.632c3.155-6.419-2.603-11.902-0.279-18.322c0.887-2.547,1.662-5.649,1.331-7.975l1.329-1.33     c0.221-4.981-0.5-9.3,0.829-13.84c2.439,9.467,1.275,21.206-1.049,30.562c-0.498,4.042-0.61,8.638,2.101,11.683     c-0.554,6.255,2.935,11.57,3.214,17.825C299.579,521.862,299.136,522.528,298.694,523.192z M212.877,381.938l-1.408-0.089     C211.913,381.682,212.39,381.785,212.877,381.938l2.854,0.186C214.85,382.787,213.842,382.242,212.877,381.938z M278.458,391.923     c-2.878-3.985-8.525-1.161-12.511-2.38c-3.601-1.438-8.194-0.555-12.234-0.775l-0.5,0.499c-6.533,1.274-13.452,0.22-19.156-2.104     c-0.387-0.33-0.223-1.882-1.329-1.604c-0.441,0.387-0.221,1.051-0.277,1.604c-2.27,0.61-4.483-1.218-6.091,0.277     c-2.988-0.22-6.476-1.161-9.3-0.552c-0.721-0.056-1.605,0.219-2.16-0.279c3.821-2.38,7.807,1.219,11.459,0l0.498-0.497     c-1.216-1.328-5.424-0.333-3.985-3.488c-1.77-0.831-4.042-0.443-5.812-1.328l5.314-0.277c-0.608-0.831-2.545-1.552-3.709-1.329     c-0.829-0.663-1.829-0.884-2.934-0.776c2.934-1.659,4.594,1.992,7.141,1.051c1.885,0.834,4.265,1.719,4.819,3.988     c0.718,0.334,0.718-0.5,1.052-0.773v-0.555c7.638-0.831,13.952,0,21.813-0.274l3.986,1.326c0.387,0.112-0.774,0.774,0.223,1.108     c3.432-1.55,7.417-1.886,11.182-2.435C270.21,385.444,277.243,385.501,278.458,391.923z M269.659,382.349l0.828,0.549h-1.328     L269.659,382.349z M268.604,381.571c-1.439,1.326-2.547-1.328-3.986-1.608C266.058,380.243,267.386,380.797,268.604,381.571z      M222.098,361.364l0.775-0.775v1.606c-1.493-0.998-3.54-1.165-4.483-2.935C219.83,359.371,221.215,360.256,222.098,361.364z      M217.34,356.047c0.718,0.057,1.326,0.498,1.826,1.052C218.333,357.321,217.504,356.768,217.34,356.047z M303.152,353.112     c0.997,0,1.607,0.999,2.38,1.329C305.201,354.277,302.711,354.888,303.152,353.112z M302.1,353.946l0.275,0.274l-1.104,0.498     L302.1,353.946z M291.967,352.615c-0.498,0.608-1.439,0.167-1.827,1.052C289.42,353.779,291.195,352.559,291.967,352.615z      M302.1,377.029h-0.828l0.828-2.38V377.029z M299.941,372.825c-1.165,0-2.381,0.717-3.986,0.219     c-0.718,0.279-1.108-0.387-1.552-0.775l0.169-1.223c-0.052-0.051-0.12-0.039-0.169-0.105l0.223-0.277l-0.054,0.383     c0.915,0.899,2.455-0.271,3.816,0.672l0.5-0.5l-1.054-1.052c0.667-0.166,1.551,0.331,1.885-0.554     c-0.111-0.941-1.165-0.61-1.606-1.052c-1.496,0.608-2.547-0.165-3.986,0.498c-0.833,0.497,0.662-0.775-0.554-1.052l-1.613,1.282     c0.057-0.664,1.164-1.909-0.164-2.46l-1.517,1.23c0.451-2.625-0.524-3.761-0.97-5.367c1.605-1.938,1.331-5.094,3.985-6.092     c3.437,0.721,8.084-1.825,9.08,1.826c-0.552,1.993,3.711,2.938,1.054,4.819C303.429,366.9,303.041,370.887,299.941,372.825z      M328.397,381.571c-3.876-2.049-8.526-3.765-13.012-2.659c-3.183-0.936-5.961-0.022-8.745,0.856     c2.837-0.93,5.434-3.588,8.745-3.513l-0.554-0.552c2.271-1.054,5.149-1.328,7.696-0.776c-0.554,1.218-2.547,1.385-2.103,2.656     c6.365-6.035,16.499-3.432,22.034-10.905c3.479-2.132,7.805-2.521,11.956-3.206l0.018-0.018     c5.038-0.813,9.653-2.065,12.304-7.127c2.988-0.443,4.981-3.27,7.972-3.711h0.831c-2.214,1.496-5.261,2.16-6.643,4.483     c1.161,0.113,2.489-1.105,3.985-1.052c-0.61,1.828-4.65,0.721-3.488,2.935h1.049c0.834,1.052-2.101,1.052-3.152,1.607h-0.554     c0.167-0.39-0.331-0.556-0.5-0.83c-0.939,0.33-1.549,1.605-1.108,2.437c0.834,0.828,2.494,0.551,3.488,0.218     c1.277-1.049,2.77-1.993,3.711-3.152c0.058,0.331-0.223,0.828,0.277,1.052h0.277c-0.664,2.267-3.102,2.603-4.819,3.431     c-0.274,0.555-0.719-0.056-1.052-0.223c-5.258,4.321-11.516,6.366-16.996,10.077c-2.127,1.736-4.208,1.801-7.266,2.152     l-0.631,0.033c-1.052,0.105-2.094,0.229-3.092,0.472C335.43,377.919,332.164,380.463,328.397,381.571z"
   id="path41" />
			<path
   fill="#C6C7C8"
   d="M307.141,395.134c-0.336,0.667-0.998,0.5-1.608,0.5l-0.274-0.223     C305.699,395.301,306.529,394.413,307.141,395.134z M327.622,379.963c2.162-1.103,4.485-1.937,6.643-3.151l0.224,0.218     c-1.993,1.938-4.43,2.771-6.866,3.488V379.963z M284.271,387.439h-0.496c1.105-0.607,2.544-2.326,2.657-3.488h0.498     C287.263,385.611,285.491,386.888,284.271,387.439z M286.93,396.188l-0.274-0.554c0.554,0.111,1.216-0.167,1.605,0.274     C288.205,396.406,287.427,396.132,286.93,396.188z M297.281,387.162h-0.772c0.11-1.051-0.221-1.937-0.775-2.657     c1.162-0.554,1.049,0.832,1.547,1.329V387.162z M290.916,414.013l-0.498-1.325c0.554,0,1.218-0.17,1.549,0.497L290.916,414.013z      M293.295,401.225c0.61-0.94,2.439-0.995,3.488-0.497L293.295,401.225z M298.389,410.805c0,0.277,0.057,0.662-0.274,0.774h-0.833     C297.394,411.191,297.784,410.525,298.389,410.805z M299.166,413.736c-0.277,0.276-0.885,0.056-1.331,0.774     c-0.441-0.331-0.606-0.774-0.554-1.326h0.554c-0.108,0.387,0.335,0.552,0.554,0.828c0.72-0.441,0.057-1.882,1.332-1.604     C300.051,412.741,299.609,413.403,299.166,413.736z M299.721,400.174c1.049-0.61,2.213-0.057,3.154,0.554     C301.934,401.115,300.77,400.229,299.721,400.174z"
   id="path43" />
			<path
   fill="#C6C7C8"
   d="M296.232,360.312c0.998-0.113,2.38,0.331,2.934-0.279l-0.777-0.498c0.113-0.164,0.223-0.331,0.5-0.274     v-0.555c-1.716,0.167-3.652-0.333-5.04,0.555l3.711,0.274C297.281,360.089,296.178,359.314,296.232,360.312z"
   id="path45" />
			<path
   fill="#C6C7C8"
   d="M291.749,363.246c0.165,0.718,1.216,0.718,1.826,1.052c1.549-0.39,1.662-1.605,2.657-2.657     c-1.829-0.112-3.655-0.941-5.316,0.275c0.61,0.389,1.164,0.112,1.882,0.776L291.749,363.246z"
   id="path47" />
			<path
   fill="#C6C7C8"
   d="M298.889,363.743c1.162,0.555,2.658,0.275,3.486-0.776l-0.275-0.274l0.775-1.052     c-0.998-0.887-2.768-0.61-3.986-0.276C297.281,361.641,298.502,363.079,298.889,363.743z"
   id="path49" />
			<path
   fill="#C6C7C8"
   d="M295.455,366.403l0.279-2.385c-0.446,0.943-1.439,1.664-1.108,2.937c1.108,1.385,2.324,0.719,3.763,0.552     v-0.829C297.394,367.398,296.453,366.512,295.455,366.403z"
   id="path51" />
			<path
   fill="#C6C7C8"
   d="M254.765,385.558c4.15,2.049,9.466,2.603,13.839,2.656c-4.265-1.605-9.523-0.994-13.565-3.21     L254.765,385.558z"
   id="path53" />
			<path
   fill="#C6C7C8"
   d="M288.261,425.973l-0.279,1.549c0.366,0.366,0.601,1.01,0.866,1.59l0.584-0.59     C289.026,427.68,288.744,426.784,288.261,425.973z"
   id="path55" />
		</g>
	</g>
</g>
</svg>