<?xml version="1.0" encoding="UTF-8" standalone="no"?>
<!-- Created with Inkscape (http://www.inkscape.org/) -->
<svg
   xmlns:dc="http://purl.org/dc/elements/1.1/"
   xmlns:cc="http://web.resource.org/cc/"
   xmlns:rdf="http://www.w3.org/1999/02/22-rdf-syntax-ns#"
   xmlns:svg="http://www.w3.org/2000/svg"
   xmlns="http://www.w3.org/2000/svg"
   xmlns:sodipodi="http://sodipodi.sourceforge.net/DTD/sodipodi-0.dtd"
   xmlns:inkscape="http://www.inkscape.org/namespaces/inkscape"
   version="1.0"
   width="499.99994"
   height="526.45032"
   id="svg2"
   sodipodi:version="0.32"
   inkscape:version="0.44+devel"
   sodipodi:docname="pepiuox_dvinci_men.svg"
   inkscape:output_extension="org.inkscape.output.svg.inkscape"
   sodipodi:docbase="C:\Documents and Settings\James\                  ">
  <metadata
     id="metadata65">
    <rdf:RDF>
      <cc:Work
         rdf:about="">
        <dc:format>image/svg+xml</dc:format>
        <dc:type
           rdf:resource="http://purl.org/dc/dcmitype/StillImage" />
      </cc:Work>
    </rdf:RDF>
  </metadata>
  <sodipodi:namedview
     inkscape:window-height="602"
     inkscape:window-width="742"
     inkscape:pageshadow="2"
     inkscape:pageopacity="0.0"
     guidetolerance="10.0"
     gridtolerance="10.0"
     objecttolerance="10.0"
     borderopacity="1.0"
     bordercolor="#666666"
     pagecolor="#ffffff"
     id="base"
     inkscape:zoom="1.300219"
     inkscape:cx="346.39886"
     inkscape:cy="490.42111"
     inkscape:window-x="24"
     inkscape:window-y="26"
     inkscape:current-layer="svg2" />
  <defs
     id="defs4" />
  <g
     transform="matrix(0.2522053,0,0,0.2522053,118.40968,80.724495)"
     id="g2216">
    <g
       transform="translate(356.5367,635.8214)"
       id="g8660">
      <path
         style="fill:#161616"
         d="M 51.215942,1130.6553 C 41.726706,1128.4674 32.194334,1127.4431 22.408138,1128.468 C 11.112527,1128.1969 -1.0974187,1126.0766 -10.976357,1120.9303 C -13.2648,1107.5488 -0.33423,1102.3496 9.7765024,1098.4395 C 20.786723,1093.0668 33.72091,1091.8555 43.092431,1083.3639 C 56.408603,1072.2159 73.345507,1066.8055 87.048518,1056.357 C 91.07461,1054.2 90.802326,1050.0838 90.817211,1046.0984 C 91.555083,1031.4853 92.759934,1016.5783 87.89233,1002.4675 C 78.456663,968.10193 65.697079,934.71738 55.94425,900.4552 C 49.208499,882.74096 40.043237,865.59337 38.539338,846.34323 C 34.353863,817.89011 38.137403,788.75414 32.526547,760.49198 C 27.57196,748.54386 30.003045,735.20366 29.192667,722.59536 C 28.471368,696.55198 30.129054,670.31397 26.7824,644.42119 C 15.543175,601.12803 13.790351,556.05908 14.038082,511.53812 C 14.422991,482.04417 16.497176,452.44792 22.852781,423.59193 C 24.465303,410.21985 26.363296,396.79239 30.971554,384.07086 C 30.015251,362.47507 26.787613,340.47241 32.868846,319.30184 C 39.187641,296.32446 40.298111,272.46875 40.354061,248.77129 C 40.626306,228.86236 43.36474,209.12377 45.201937,189.32624 C 47.289577,171.48686 50.50044,153.76392 53.739038,136.14928 C 53.918061,119.70072 55.287308,102.99429 52.574606,86.707882 C 46.161226,68.591008 37.319507,51.349796 31.945842,32.81806 C 24.775049,13.140941 24.855428,-8.1582374 21.794716,-28.556877 C 14.072651,-42.154831 5.2060089,-55.753595 4.0675032,-71.818538 C 1.4266921,-86.041751 2.8037956,-103.28212 -9.4865363,-113.45495 C -25.194925,-127.23407 -47.485462,-127.5572 -67.278797,-129.00027 C -82.340718,-129.34405 -97.36621,-129.89422 -112.23363,-132.28348 C -131.17391,-134.02699 -150.42434,-134.49213 -168.64328,-140.57473 C -175.00327,-141.63329 -181.24071,-144.95898 -187.6665,-144.81741 C -232.1978,-137.25396 -277.5755,-143.11089 -322.00642,-148.45086 C -347.67613,-152.88416 -371.35435,-164.27319 -394.52394,-175.66206 C -408.20646,-181.37301 -423.60286,-187.84634 -438.49306,-183.14463 C -448.64733,-176.82216 -460.28742,-173.04616 -472.3491,-173.96133 C -484.55845,-172.73024 -496.03868,-177.07701 -507.9109,-178.78878 C -519.05071,-179.47582 -530.30702,-180.28467 -540.65667,-184.86032 C -551.5001,-186.96645 -563.49507,-189.19429 -574.109,-185.12144 C -583.76089,-180.31562 -595.24278,-181.49433 -605.35844,-183.82892 C -614.60109,-186.92334 -621.70306,-192.64401 -616.69528,-203.17157 C -622.94353,-215.41016 -608.51274,-220.2903 -601.05434,-226.25638 C -589.97002,-236.71457 -573.81773,-233.64502 -559.94584,-234.47243 C -532.32435,-234.46836 -504.59899,-235.62085 -477.10071,-232.55543 C -458.28016,-232.44604 -439.53827,-235.43812 -420.72917,-234.99777 C -415.11139,-233.92808 -410.81243,-228.52248 -404.7078,-229.95261 C -374.22875,-230.09653 -343.6966,-229.77655 -313.34102,-232.942 C -288.88442,-233.65504 -264.01457,-234.36738 -240.03448,-228.7924 C -223.90196,-228.08095 -208.80984,-221.47678 -192.8951,-219.15282 C -174.3532,-215.26963 -155.54768,-220.25015 -136.82976,-219.3804 C -119.84753,-219.34846 -102.68615,-219.0361 -86.021068,-215.73469 C -75.592778,-218.73797 -65.752235,-223.91616 -55.707496,-227.8817 C -45.313869,-235.96757 -56.472139,-249.63766 -58.051872,-259.58155 C -62.164129,-269.75625 -62.090083,-281.15568 -67.119596,-291.0289 C -70.166788,-302.11252 -69.154464,-313.80362 -72.199315,-324.93232 C -74.873105,-341.00537 -77.739693,-357.14727 -82.811038,-372.60555 C -84.727834,-386.27805 -85.525928,-400.10072 -88.071784,-413.68649 C -88.410214,-427.10217 -80.83128,-439.07404 -77.405577,-451.73361 C -68.60711,-477.32814 -60.110638,-503.12213 -52.610132,-529.07126 C -47.663525,-538.54012 -41.57777,-547.2803 -36.569503,-556.72021 C -23.295668,-579.06185 -9.0677564,-600.79803 5.9142679,-622.02439 C 18.731681,-641.53984 27.342804,-663.94459 44.018939,-680.78671 C 55.361956,-692.76015 67.321153,-705.04849 72.616263,-721.05641 C 78.980187,-729.05723 82.967551,-738.46385 89.68527,-746.16929 C 98.68773,-758.27246 106.96857,-770.98902 118.29769,-781.13388 C 128.58104,-789.97499 134.08286,-802.42536 140.90763,-813.80375 C 145.39764,-821.64306 154.65632,-838.89889 164.8935,-831.16864 C 168.22595,-822.14901 180.67415,-811.9691 169.79269,-802.84765 C 167.1654,-792.63787 157.21221,-786.54497 155.59384,-775.92835 C 154.60073,-767.66646 139.01892,-754.01585 150.35807,-749.54231 C 163.71044,-750.83972 172.20098,-735.73553 163.78861,-725.14598 C 157.13104,-717.35742 145.41476,-714.92979 143.69394,-702.92384 C 135.66053,-691.4313 124.35967,-682.02282 111.17966,-677.06566 C 100.16664,-669.24547 93.359494,-656.87979 86.044917,-645.80912 C 74.307104,-625.3319 67.349864,-602.67491 61.946145,-579.81994 C 55.054124,-555.45846 48.590505,-530.7107 37.690692,-507.77557 C 27.606412,-491.63212 20.407155,-473.76105 8.9266765,-458.46283 C 0.46777038,-443.35213 -7.7655707,-426.69521 -6.2434608,-408.87139 C -6.5013868,-397.7868 -6.4721568,-385.95131 1.5836684,-377.25827 C 14.872056,-358.81932 22.823424,-337.28214 31.873052,-316.59976 C 38.403288,-297.83731 43.804578,-278.44466 45.956621,-258.65044 C 50.722571,-247.58051 60.885137,-239.89582 67.752668,-230.11803 C 72.248605,-218.72486 84.37846,-217.42222 92.066201,-226.81225 C 101.66925,-234.72297 100.67761,-249.34176 98.506393,-260.4075 C 94.760828,-269.4705 101.15278,-284.11428 88.089419,-285.70858 C 82.085848,-296.48453 81.09261,-309.30885 78.457464,-321.20806 C 75.778702,-332.61847 86.473002,-341.66504 82.158758,-352.91259 C 81.006161,-367.25165 79.313802,-382.07731 84.624115,-395.84752 C 87.73944,-409.25943 98.699197,-418.89432 109.39009,-426.61666 C 125.98156,-436.55628 145.79731,-437.03543 164.55269,-438.12347 C 177.82539,-437.40606 191.32943,-435.79109 204.04051,-431.82302 C 217.85639,-425.55205 230.49133,-415.27319 237.38555,-401.60089 C 241.32331,-386.10149 240.17507,-369.81076 240.609,-353.93663 C 239.38964,-346.44491 236.56345,-339.10551 245.51422,-335.75814 C 251.87722,-325.40169 247.11899,-312.44917 244.23778,-301.68147 C 241.63066,-292.87581 236.0526,-285.05093 227.99895,-280.5278 C 227.26528,-272.55371 226.42937,-264.51251 228.41183,-256.66604 C 229.12717,-245.50052 225.58646,-229.06505 241.03142,-227.10183 C 251.89994,-223.39351 261.25286,-214.92588 272.9876,-214.25185 C 289.51264,-216.98365 303.47285,-227.60618 319.5574,-232.03843 C 330.82487,-234.52339 342.57969,-234.71058 353.94783,-236.14956 C 365.63875,-233.37013 378.08747,-234.56667 389.25518,-229.60419 C 398.15187,-226.36307 407.28968,-223.69116 416.99381,-225.14557 C 433.20169,-225.63625 449.19645,-228.41301 465.09101,-231.28572 C 487.58784,-231.20423 510.05228,-229.01283 532.34711,-226.05382 C 543.21679,-231.90547 554.28868,-238.74819 567.14581,-238.11109 C 599.24126,-239.53547 631.36699,-238.29444 663.41618,-236.56235 C 702.94667,-236.55149 742.32842,-240.30456 781.73233,-242.93086 C 806.18432,-245.76757 830.71205,-249.14353 855.39378,-247.74413 C 874.11583,-247.35082 892.71274,-244.83022 911.46772,-245.27474 C 921.33274,-243.53543 936.65695,-246.48644 941.76939,-236.36614 C 950.70636,-227.25404 944.6264,-215.07318 934.93697,-209.60508 C 927.40221,-207.45523 920.00812,-204.66652 914.27773,-198.64594 C 910.25832,-196.99413 905.16113,-198.30988 900.71672,-197.82827 C 885.17237,-197.55777 869.44832,-198.40507 854.20672,-194.88457 C 841.44217,-195.8821 829.7235,-192.5048 818.42999,-186.79202 C 806.61545,-179.46385 791.64503,-180.87474 778.71593,-183.90541 C 766.70888,-187.18452 753.65285,-194.55312 741.19653,-189.41923 C 726.04682,-183.69718 710.62984,-178.61678 695.38249,-173.12116 C 670.58972,-164.9842 645.48293,-156.8208 619.21125,-155.5151 C 591.2224,-153.80896 563.10713,-153.21935 535.08498,-154.19401 C 524.15033,-154.46738 513.75689,-159.74919 502.84927,-158.97965 C 485.32084,-154.87114 467.00042,-154.20032 450.23678,-147.04038 C 433.83581,-140.80626 416.13925,-139.98267 399.35419,-135.1903 C 390.20494,-135.09428 375.98301,-134.4448 384.18423,-121.92914 C 389.33829,-101.73841 390.82196,-80.746669 392.48045,-60.02334 C 394.02284,-48.855573 388.14854,-37.642676 394.81738,-27.320431 C 401.3045,-8.6883305 411.69924,8.4281616 416.0279,27.805402 C 419.51402,40.369173 422.58677,53.158488 424.51106,65.992949 C 435.27795,80.308311 448.33905,92.899444 458.37192,107.84839 C 477.38414,134.24435 489.45023,164.7307 506.95657,192.05939 C 522.30552,218.45236 540.2335,243.20489 556.3836,269.08027 C 562.13575,279.06927 562.23883,291.08247 567.22086,301.45383 C 572.4633,313.61247 577.10343,326.1469 577.68233,339.52896 C 578.4723,350.26137 582.1772,361.88188 576.06775,371.78107 C 568.53367,380.52374 556.94824,387.41913 545.74172,390.77181 C 534.81948,391.50208 521.01385,396.46468 512.43089,387.13992 C 504.81451,380.20312 497.45478,372.95981 489.31873,366.61905 C 489.76748,357.74703 486.64852,347.23236 493.25679,340.12754 C 497.34609,337.87621 500.68922,335.41449 499.24071,330.28227 C 499.39888,318.66189 498.51833,306.75785 502.52345,295.63512 C 502.64072,283.8435 488.47786,278.75192 482.05066,270.25861 C 469.87668,258.20415 456.6764,247.29155 443.04317,236.95836 C 425.87175,220.13286 409.33619,202.46955 396.12481,182.2785 C 388.55574,172.81491 383.96573,161.68142 380.28792,150.25232 C 373.85497,134.51049 370.87051,117.61991 370.79725,100.64868 C 369.17944,88.032226 357.62006,80.114168 351.21593,69.920359 C 342.86253,59.522049 333.46796,49.799799 328.10001,37.378927 C 318.15565,27.69293 320.46773,54.606298 315.83047,60.808821 C 311.13968,79.076944 305.61071,97.352939 303.71372,116.16212 C 302.16822,144.95962 306.01293,173.78333 304.317,202.55031 C 303.94435,210.84173 299.38513,218.46732 297.74903,226.23846 C 307.46307,249.39495 302.49751,275.04204 307.30244,299.13583 C 311.48326,321.43519 313.29195,344.0422 315.58563,366.57658 C 322.3677,404.28832 321.90798,442.79905 321.68518,480.97259 C 317.87467,522.46945 316.0446,564.25473 308.3827,605.30523 C 303.60153,640.48973 295.42202,675.87688 299.27626,711.56564 C 300.02182,730.90765 299.87798,750.35747 298.28533,769.60274 C 301.41199,781.9143 304.98916,794.16742 306.66707,806.83232 C 310.52355,831.50135 313.4008,857.11437 306.72935,881.60274 C 297.3701,916.42907 285.77696,950.97928 282.90252,987.1628 C 281.27342,1006.7705 280.30658,1026.5221 281.22232,1046.1818 C 281.89503,1058.3848 295.23023,1062.2879 302.72288,1069.7275 C 311.06981,1076.5943 318.11,1085.7144 329.21808,1088.1937 C 341.47031,1093.1709 353.16861,1101.1289 360.32121,1112.438 C 362.54349,1125.2537 344.73985,1124.3094 336.24625,1126.3699 C 320.49009,1127.968 304.62945,1131.4258 288.76078,1129.7536 C 275.95195,1126.0339 262.00436,1128.7839 249.67071,1122.9967 C 236.01227,1118.4065 221.47692,1118.9812 207.42098,1116.9748 C 198.38534,1114.6266 187.17689,1104.9605 189.78252,1095.041 C 193.25938,1083.1577 195.15285,1070.3644 203.35837,1060.6635 C 210.7749,1040.9951 208.83961,1019.4958 210.31924,998.87846 C 211.02268,974.28699 208.206,949.73389 205.86495,925.301 C 203.4459,910.71407 196.88527,897.31978 192.10819,883.48495 C 190.03541,854.87093 192.25433,825.97381 198.31987,797.92351 C 200.64264,781.9042 205.227,765.84026 204.08608,749.56907 C 201.75269,737.08404 196.52353,725.05766 197.48791,712.095 C 196.88336,682.25874 198.88896,652.36944 197.1141,622.56889 C 193.78051,598.54169 195.09264,573.93074 188.89637,550.28172 C 183.15951,528.67676 178.23524,506.87383 173.36995,485.06436 C 168.27049,473.10217 166.07264,493.51479 165.31281,497.86288 C 157.04069,530.51713 150.53712,563.63003 141.02786,595.97432 C 137.47692,617.03852 138.19298,638.55478 137.91674,659.82654 C 136.70452,682.76476 128.80637,704.50662 123.96136,726.76724 C 118.46141,737.24628 119.63548,748.35915 129.55746,755.37954 C 138.90107,768.68522 144.92078,784.14821 150.05399,799.50621 C 155.78981,818.3729 158.94122,837.91878 159.0361,857.65099 C 160.88535,878.25664 156.91162,898.64479 156.07712,919.18664 C 153.62371,940.51123 153.59185,962.22538 158.28453,983.26828 C 162.22599,1005.575 163.51058,1028.4958 171.55185,1049.8952 C 176.53026,1067.3314 181.12887,1085.2793 181.39787,1103.4721 C 179.93615,1115.8332 168.27269,1119.0171 157.57163,1118.034 C 133.62735,1119.2671 109.05735,1119.2846 86.421358,1128.2824 C 75.079147,1132.4401 63.010669,1131.7509 51.215942,1130.6553 z M 67.445702,1124.1509 C 77.918998,1121.7614 89.253525,1121.6351 98.314681,1114.9553 C 107.02906,1105.2647 119.26553,1103.1528 131.77016,1104.653 C 141.92703,1105.3227 151.66247,1111.1025 162.10187,1107.8599 C 174.9088,1103.4428 175.06779,1087.197 171.58463,1076.2977 C 168.24253,1064.9402 167.22317,1052.6261 160.91321,1042.5715 C 157.99146,1026.9168 156.62301,1010.9892 153.44693,995.3556 C 151.3221,972.98216 145.35819,950.48623 149.53547,927.99415 C 152.95206,897.96537 153.6384,867.55985 151.75689,837.40579 C 150.21821,822.01646 146.95126,806.81819 140.76466,792.60367 C 136.36803,781.10476 132.2572,769.10036 125.11665,759.00885 C 111.2476,753.46737 115.08876,737.93928 116.67075,726.21771 C 122.94643,712.84559 125.9562,698.02163 129.92242,683.78149 C 132.62933,664.88278 133.8536,645.71397 133.07344,626.59646 C 132.74769,613.46703 131.63324,599.96678 136.60923,587.46908 C 148.06624,547.68516 157.98615,507.28563 162.93285,466.12551 C 164.90941,445.68674 165.35417,424.886 162.74843,404.52389 C 159.17461,395.36007 152.88111,389.52933 142.66694,391.31526 C 132.18966,387.21604 134.11451,372.98408 136.46734,364.27973 C 145.17308,352.2123 140.81804,375.25515 142.30458,380.23302 C 153.05461,390.25218 154.5812,369.85022 151.1404,362.83222 C 151.50358,351.39452 140.24677,348.72952 132.20344,347.93063 C 141.63521,344.33045 137.97708,334.10907 128.27488,335.64538 C 123.15804,337.43473 109.72915,332.98469 116.53016,329.07086 C 124.90421,329.41797 133.49993,328.13806 141.68724,330.15987 C 147.02899,336.54481 153.93148,343.46637 157.86198,350.06217 C 154.6979,361.18333 155.16413,373.71715 158.86558,384.73368 C 157.87134,398.4323 176.65552,402.13788 178.52181,387.00125 C 179.64003,379.13887 154.19458,385.23826 166.63033,379.07903 C 176.6556,380.50132 181.73823,371.76391 176.21258,363.51411 C 175.86053,353.58839 172.51523,341.86033 185.85033,339.24147 C 195.8915,334.71453 196.99587,321.3949 184.04466,319.82257 C 174.5903,320.78384 172.27957,302.31277 176.85224,300.27608 C 176.60466,307.90518 188.02969,317.34328 188.61944,304.50902 C 187.17702,297.16879 193.72129,296.60519 193.55265,303.96036 C 202.52658,310.03268 201.66235,295.42589 204.36499,291.78077 C 218.11705,290.64429 194.48601,316.36138 211.37267,309.34297 C 223.41798,307.47249 218.36906,289.2182 225.15724,286.76248 C 227.53235,290.96541 222.82509,301.09077 230.64869,299.35394 C 243.50524,301.97406 223.59493,304.23787 221.06677,308.60927 C 215.15703,315.10081 207.82733,320.02915 203.99491,328.15815 C 203.68714,332.20436 217.65597,325.57373 216.98606,330.82901 C 210.60393,333.75845 191.59033,330.79743 195.1828,341.13475 C 200.90436,338.80442 212.89581,335.61624 214.76704,343.8106 C 205.43278,339.29678 189.00332,343.73049 195.75541,356.79298 C 197.73326,366.02502 203.32938,381.05285 191.62874,385.57086 C 183.367,392.67474 172.2107,400.43528 170.79421,412.02293 C 174.8161,423.65319 170.28228,435.12381 171.72499,447.05701 C 174.2623,469.81412 181.09925,491.80374 185.14587,514.29869 C 191.02635,537.58941 199.91364,560.32783 201.14104,584.57086 C 202.30167,599.89109 206.1929,615.27025 202.96287,630.58554 C 203.2241,645.48517 205.57488,660.39741 203.29268,675.28124 C 202.78798,692.59704 200.86132,710.21551 203.75645,727.39038 C 205.17813,738.91807 215.19351,746.87602 209.80733,758.43803 C 208.61099,764.8092 219.14186,770.52255 211.96759,775.27365 C 204.77776,788.37535 203.65849,803.8317 200.9691,818.31115 C 198.12012,840.11772 199.33607,862.14634 199.27304,884.0708 C 205.94726,899.98664 214.27907,915.86894 213.89369,933.61271 C 214.01991,949.34855 215.99622,964.96149 217.36894,980.59156 C 216.87348,996.11957 215.79394,1011.6376 216.10566,1027.1669 C 215.43229,1038.3016 214.05,1049.4343 211.99773,1060.3566 C 213.26699,1066.2961 225.61727,1071.0287 213.43601,1072.5054 C 201.48665,1070.0453 196.74639,1082.5639 198.02592,1092.1399 C 201.69195,1104.3899 213.69569,1111.3985 226.37906,1108.7339 C 236.71502,1109.6102 249.92476,1100.9606 255.17751,1114.4913 C 261.32533,1120.3947 274.17886,1126.5441 280.79712,1118.2169 C 285.58534,1118.5915 292.8945,1128.0082 300.48088,1123.1313 C 307.33777,1125.1063 312.60344,1111.4301 305.04819,1111.8938 C 295.61088,1115.2693 290.69253,1101.0356 302.46593,1102.5845 C 312.2695,1103.523 311.20905,1127.0534 322.2593,1119.5096 C 322.26383,1116.0284 320.30335,1100.9126 324.32949,1110.3294 C 329.50911,1120.3892 329.70802,1107.8012 332.6704,1107.2199 C 335.37173,1115.9743 344.48065,1114.9055 342.13345,1105.1533 C 343.84058,1100.2315 338.10724,1098.9489 335.10148,1096.5607 C 324.5596,1091.4227 313.71124,1086.8644 302.91821,1082.3486 C 294.90097,1075.674 288.53546,1067.0832 279.59889,1061.4077 C 271.58446,1057.3247 267.04984,1050.6197 273.29732,1042.6136 C 277.24357,1025.5132 275.31443,1007.7589 277.44919,990.40867 C 278.50277,969.89243 280.17679,949.20711 286.98457,929.66439 C 295.56663,898.95066 303.31273,867.65136 305.07208,835.70543 C 304.91896,821.94426 300.9829,808.61062 298.67203,795.19516 C 297.30554,784.33053 294.95735,772.27233 282.54113,771.08968 C 276.03847,766.19695 278.90667,758.73887 286.78231,759.21855 C 291.67005,749.73605 291.204,737.54721 291.62773,726.79462 C 291.6721,711.91303 287.07681,697.11964 290.73479,682.30034 C 298.13771,638.97608 302.75159,595.22928 310.04581,551.88237 C 312.98575,534.20079 312.69995,516.23481 314.90914,498.47722 C 316.48634,455.35736 316.27712,411.87473 309.17183,369.21773 C 302.58856,348.485 304.31924,326.29028 300.5744,305.01048 C 298.71721,288.79792 295.78288,272.65006 294.95824,256.35699 C 295.10011,248.20018 300.52078,228.14165 286.69969,231.46065 C 276.39419,237.61595 265.15053,241.65921 253.40403,244.13488 C 246.19738,242.83181 241.67623,262.32697 238.93537,249.72153 C 241.90482,237.26895 257.86585,239.57363 264.88358,230.58189 C 274.31921,226.12096 283.61646,220.19906 290.00912,211.75348 C 294.9628,200.6612 298.08649,188.36685 295.74875,176.19894 C 294.172,152.18709 292.0307,127.81269 297.24622,104.07047 C 302.53405,69.292118 319.28019,36.142412 315.97421,0.23774511 C 314.70337,-12.9331 314.73351,-26.275791 312.52012,-39.325945 C 304.03443,-46.623096 293.77066,-32.938256 284.85349,-31.181323 C 267.69397,-23.475336 248.33277,-26.007757 230.01333,-25.262923 C 225.4142,-25.221986 220.81507,-25.181049 216.21594,-25.140112 C 214.23206,-36.460302 231.57988,-30.948027 238.23299,-32.919403 C 252.64957,-33.377332 267.92465,-32.766316 280.7753,-40.449758 C 286.48145,-45.031236 294.75177,-44.376356 299.00114,-46.532791 C 301.86351,-53.898831 296.7905,-69.869466 309.76405,-66.02918 C 323.94278,-62.534402 326.00705,-81.176318 330.11443,-90.55319 C 332.73825,-99.13934 338.48243,-116.55634 326.75473,-119.92258 C 316.01136,-124.57945 334.97376,-133.95794 339.71202,-137.96524 C 346.5822,-144.72833 362.74717,-137.5193 364.37507,-148.96132 C 359.20535,-161.29934 348.04338,-172.55785 333.95323,-173.29916 C 321.45571,-174.7631 311.29403,-184.45266 298.33276,-183.76744 C 294.04827,-183.486 297.18047,-190.07632 296.21594,-192.87091 C 282.13739,-200.06536 266.22594,-206.74985 250.10023,-204.41166 C 232.98638,-196.13243 218.3722,-180.02367 197.9339,-180.80991 C 187.67966,-184.30464 179.04441,-180.53373 170.64229,-175.80383 C 162.97668,-180.25637 183.25436,-184.64618 177.91263,-193.16825 C 172.04606,-202.39043 189.30172,-212.95819 180.82223,-219.27134 C 166.48116,-217.65149 152.00793,-217.87364 137.59764,-217.34749 C 129.74741,-225.0607 124.18991,-235.20737 113.81012,-240.01329 C 105.27639,-249.15247 101.95887,-236.16916 105.43227,-229.13317 C 108.63298,-216.14523 91.180154,-217.00132 83.310263,-212.37131 C 85.977278,-203.39256 100.24958,-201.4237 108.27118,-196.71364 C 119.77303,-192.57134 131.34411,-188.14167 143.23524,-185.4144 C 148.63607,-185.15301 164.79392,-177.20668 155.53779,-172.89711 C 143.83566,-179.62067 129.64405,-177.93384 117.50247,-183.64997 C 109.01099,-191.1875 97.431887,-191.23529 87.906039,-197.43362 C 78.882369,-206.19051 66.170173,-199.47566 57.20731,-205.32361 C 50.567351,-208.13204 34.224369,-218.94627 32.823301,-206.30095 C 32.185595,-192.68273 37.481867,-179.87628 38.153163,-166.38665 C 40.748891,-151.42626 42.597344,-136.08484 47.855497,-121.78615 C 58.047927,-113.35499 49.627593,-103.17727 47.049212,-93.28253 C 43.803961,-79.602929 41.352387,-62.943779 52.004994,-51.759647 C 58.363069,-42.038361 69.987846,-38.74772 78.734795,-32.032995 C 75.257128,-26.018637 61.786955,-37.412068 55.548125,-39.676303 C 44.509311,-47.745222 35.848598,-59.047061 30.403059,-71.556405 C 22.541596,-80.711926 20.662609,-96.14138 8.9920445,-101.12119 C -0.98245707,-95.084508 11.62244,-79.081283 10.705001,-69.443247 C 12.05217,-57.785403 16.182285,-44.872131 26.472068,-38.335398 C 30.513643,-28.659735 28.748644,-18.090402 30.111353,-7.6880662 C 30.87168,9.5146938 34.809993,26.379123 41.722623,42.150927 C 47.515086,56.723809 55.828636,70.344213 59.049112,85.850213 C 64.539052,95.711104 60.170947,106.95821 60.231375,117.52025 C 59.364667,127.07118 60.58434,136.59658 61.669224,146.07086 C 52.856324,155.98659 53.248961,170.02375 50.793516,182.32855 C 48.856568,194.9149 47.021037,210.14459 57.858508,219.43401 C 66.051061,229.75515 81.140649,232.1979 87.78116,243.74873 C 91.64098,246.5867 93.84708,260.92578 87.135861,253.3022 C 82.706448,240.36764 69.599922,237.33903 59.372827,230.77577 C 48.037766,219.81825 45.836129,239.41445 46.965713,247.56873 C 47.061899,264.8946 46.588852,282.30424 42.186505,299.17247 C 39.686523,311.87986 34.655546,324.15355 35.536426,337.35575 C 36.512585,347.86817 33.062398,359.99333 39.196413,369.19735 C 39.075405,380.55229 32.360194,391.07494 31.115533,402.53583 C 28.100408,419.15683 26.336348,435.98016 23.221429,452.58552 C 19.135842,494.40936 18.982448,536.59117 21.123432,578.53766 C 22.282019,594.36921 24.846226,610.10106 27.757272,625.67956 C 36.729165,650.11945 33.809817,676.50439 33.7121,702.00912 C 33.92363,706.15148 32.947106,710.69763 33.853604,714.60379 C 41.369441,721.80799 36.41601,733.04559 37.723424,742.12341 C 37.459307,752.62013 41.594774,762.42524 43.13812,772.68543 C 49.083794,783.23904 40.615779,794.05244 42.579185,805.22633 C 42.591929,821.67058 43.377175,838.31356 47.715943,854.21502 C 51.814564,873.8569 60.382602,892.23222 67.89762,910.72286 C 75.011255,939.1392 84.344561,966.93959 93.533332,994.72843 C 97.468826,1011.1371 95.12534,1028.2556 97.870753,1044.8224 C 104.75603,1047.2175 109.32152,1055.532 99.215512,1057.4625 C 88.121127,1061.4091 79.46382,1070.3665 68.608664,1075.129 C 59.653547,1080.187 48.749081,1084.3835 43.684919,1093.9147 C 44.153871,1104.7595 21.912685,1099.3708 23.891202,1111.2304 C 18.230378,1113.1895 6.275244,1116.2997 15.251943,1123.4472 C 24.67582,1127.6741 35.036086,1121.6455 42.491032,1120.2692 C 49.667908,1126.1138 58.769658,1126.6131 67.445702,1124.1509 z M 49.146843,1101.459 C 49.394844,1095.2295 67.909419,1100.1653 55.441962,1102.3092 C 53.382694,1102.5223 50.839264,1103.0153 49.146843,1101.459 z M 130.71594,1069.676 C 123.42909,1062.6822 144.70216,1068.9856 143.85795,1059.8671 C 151.93411,1053.2309 145.33115,1075.053 137.3919,1070.4391 C 135.14911,1070.4507 132.88779,1070.2601 130.71594,1069.676 z M 133.91034,981.69092 C 127.87545,971.85588 125.64552,960.40426 121.29287,949.86629 C 117.6727,938.03709 115.17232,925.87091 110.09392,914.54534 C 106.13639,895.72691 99.295032,877.62133 96.211793,858.5816 C 92.341285,841.9878 88.41184,825.22196 89.48252,808.03746 C 87.531805,802.08622 93.564635,793.81788 93.780728,804.58974 C 94.829988,818.36559 95.626643,832.21754 99.367252,845.58736 C 100.66733,866.72449 110.09468,886.10345 114.7834,906.54623 C 118.10531,918.03719 124.18151,928.69402 125.13388,940.8076 C 127.88807,954.37003 133.06102,967.24032 137.71594,980.19492 C 137.56227,981.93364 135.20561,982.48582 133.91034,981.69092 z M 224.23705,764.59418 C 219.60076,759.65493 224.17235,749.65251 227.40321,760.01875 C 229.49791,763.09813 229.19066,769.85484 224.23705,764.59418 z M 260.32294,742.98907 C 257.42865,729.35291 271.86775,749.2356 260.32293,742.98906 L 260.32294,742.98907 z M 67.886032,736.92615 C 71.269625,730.41186 81.321451,735.88919 70.778323,738.39066 C 69.816756,738.54904 67.181055,738.82708 67.886032,736.92615 z M 240.88014,725.26868 C 237.35101,721.79913 238.58512,704.52004 243.54666,710.99293 C 243.34969,713.92245 246.35468,727.78087 240.88014,725.26868 z M 259.93442,708.30347 C 252.76778,695.59813 279.39146,714.37887 261.1078,709.35416 L 259.93443,708.30346 L 259.93442,708.30347 z M 134.17654,322.18277 C 128.23765,321.43874 111.87286,311.70444 126.7932,311.74777 C 132.48639,319.16866 144.03787,318.64757 137.48862,307.35555 C 137.37127,299.1588 121.31751,296.346 125.55026,289.92499 C 135.5591,291.74982 139.41469,300.23732 146.23367,306.17008 C 149.8079,304.48302 148.53381,294.58226 152.41731,303.97963 C 156.01955,311.73721 163.78803,309.38173 166.65554,303.57086 C 174.8633,311.08194 161.70387,320.70097 153.29093,318.3532 C 146.60046,322.03167 142.70397,325.6572 134.17654,322.18277 z M 108.95257,158.40746 C 108.11878,152.05439 104.68991,136.83714 111.45303,135.10847 C 112.47149,140.15188 115.33599,158.38725 108.95257,158.40746 z M 156.93845,155.01416 C 146.83018,142.74612 178.41573,139.46895 172.27701,153.84372 C 169.23825,158.16794 161.15141,156.71857 156.93845,155.01416 z M 236.27895,150.86955 C 235.70307,146.30154 232.38195,131.19854 239.9222,134.18611 C 239.90896,139.94934 243.0555,155.18227 237.16013,155.42958 C 236.62629,153.96198 236.48299,152.40352 236.27895,150.86955 z M 135.71594,46.615257 C 141.46554,37.997974 146.96838,26.645299 157.97228,24.099605 C 160.82627,33.289767 146.77859,43.36309 138.51208,47.362709 C 138.00355,47.710374 135.64027,47.965776 135.71594,46.615257 z M 181.16014,43.732559 C 173.83924,44.107514 167.78393,30.619327 175.20409,29.171258 C 176.09051,38.29979 190.74437,39.215972 191.37998,45.933481 C 187.84224,46.658399 184.36491,44.979396 181.16014,43.732559 z M 258.32162,-48.297451 C 242.30864,-53.708063 263.27637,-68.061737 267.96657,-54.823813 C 271.38793,-48.069838 262.82046,-46.58922 258.32162,-48.297451 z M 65.043404,-54.581341 C 59.845359,-64.944325 73.900014,-77.059411 77.554896,-62.357437 C 77.730689,-56.836646 69.833321,-51.283715 65.043404,-54.581341 z M 144.32294,-203.01093 C 140.59238,-209.06708 148.95752,-217.22824 148.74895,-206.70892 C 149.40307,-204.61949 145.88564,-198.7879 144.32294,-203.01093 z M 7.875803,1115.744 C 12.243186,1113.5465 14.131201,1101.9825 7.7619162,1107.7462 C 5.0108782,1109.3406 -3.0723792,1126.4681 7.875803,1115.744 z M -1.6796769,1115.8208 C 6.5085793,1100.3033 -11.145919,1122.1296 -1.6796769,1115.8208 z M 349.71594,1108.7118 C 346.71023,1098.5101 341.71711,1111.5432 349.41999,1110.3231 L 349.71593,1108.7118 L 349.71594,1108.7118 z M 548.29163,379.11487 C 556.89169,377.18981 562.60095,361.68949 566.96177,361.70674 C 564.44757,371.42709 573.16013,371.97213 575.40308,363.31136 C 572.58582,352.2045 573.13487,340.48742 568.47287,329.70331 C 566.10357,316.95709 561.89774,304.67225 556.08962,293.11229 C 555.1031,282.31046 549.66797,273.45271 541.77204,266.49645 C 540.49919,254.62254 531.24716,246.8796 524.80921,237.32272 C 511.20215,220.36421 504.29494,199.28911 492.61953,181.09036 C 486.81061,168.35664 478.28355,156.97039 473.14713,143.96656 C 467.8166,131.1815 458.74228,120.28032 450.52031,109.25397 C 442.82421,98.673468 431.41517,91.638707 423.34563,81.506131 C 418.85241,72.449757 415.62198,62.612811 415.63148,52.311904 C 413.97084,38.755058 409.01763,25.984663 403.5893,13.594126 C 397.57587,-4.6998463 387.0287,-21.326803 383.18755,-40.390499 C 381.81492,-47.701953 372.07796,-63.409461 386.56181,-60.360023 C 389.18451,-69.828468 379.77929,-79.625468 382.59744,-89.827902 C 382.21006,-102.98402 380.25291,-116.87126 372.80143,-128.03461 C 364.09256,-133.48117 350.20452,-134.45001 341.15927,-128.86017 C 337.53644,-118.46429 342.91699,-105.36596 339.39994,-94.047808 C 337.78638,-83.000224 330.30786,-74.410659 324.71593,-65.24767 C 323.47356,-59.472558 319.30031,-54.399198 318.47136,-48.66312 C 319.96028,-25.639203 321.5613,-2.3742277 328.56788,19.74779 C 330.4273,32.939748 340.16463,42.856631 346.55764,53.928764 C 359.9043,72.760512 374.64198,90.595117 390.82746,107.03976 C 395.32659,116.76255 374.51536,102.31269 378.3245,116.54129 C 380.95554,146.7933 394.8774,175.37092 415.42657,197.53269 C 425.24666,208.60051 435.80692,219.03596 445.00363,230.61784 C 458.21099,243.2718 474.70059,251.98246 486.81808,265.86093 C 491.79967,269.56195 500.08664,286.03705 505.02521,275.93785 C 501.34183,266.39665 493.31687,259.00445 488.93933,249.61511 C 482.59832,245.79858 486.62187,237.80262 491.64074,244.75606 C 498.46863,254.36341 506.40621,263.70526 510.59934,274.80843 C 514.92884,283.52287 514.13232,291.13816 508.51441,299.35389 C 504.76804,308.04308 500.0866,320.48744 509.29066,327.45234 C 513.78904,336.38209 506.13408,347.20157 513.83679,354.67534 C 519.13953,357.51786 525.13848,358.80702 529.41578,361.02352 C 536.49308,352.57512 527.75929,338.84307 533.09115,328.70589 C 537.73536,323.93364 543.60999,328.12019 541.48717,334.00632 C 536.01548,343.33713 557.45687,354.19956 543.43878,356.78915 C 538.3532,359.86311 545.20283,371.33966 536.74104,369.0925 C 530.23121,369.0194 523.62366,369.89785 517.19462,368.74397 C 513.02801,362.51781 503.15997,343.22699 496.08348,352.88066 C 502.31247,362.04587 508.14934,371.85465 515.99452,379.76181 C 525.82715,381.62332 538.66779,383.60804 548.29163,379.11487 z M 191.40334,376.78516 C 196.87489,372.25869 193.6835,350.68067 185.48569,356.59549 C 186.44707,362.35938 179.86233,380.89051 191.40334,376.78516 z M 498.68512,362.52765 C 491.78322,354.22162 494.14738,371.22251 500.53813,367.07656 C 500.49242,365.37074 499.59937,363.89067 498.68512,362.52765 z M 37.515942,-77.629143 C 39.811739,-88.1659 41.259361,-99.160576 45.965943,-108.94242 C 40.812648,-119.30532 38.624172,-131.04823 36.876739,-142.59396 C 36.358772,-154.84116 32.292568,-166.4362 29.845198,-178.28971 C 28.40486,-190.03401 27.973067,-201.86834 27.136383,-213.66428 C 18.727821,-222.79396 5.2376124,-222.72293 -6.2621809,-222.59532 C -17.108569,-219.95331 -28.424567,-225.5446 -39.082946,-221.53674 C -39.662876,-216.76048 -40.642266,-207.83642 -45.814873,-216.31917 C -51.932227,-217.76446 -72.575446,-220.14896 -68.087737,-210.43681 C -52.116184,-199.63879 -30.974948,-195.38995 -20.206142,-177.98734 C -11.523634,-163.80879 -1.7441499,-150.35692 7.8314153,-136.78413 C 15.076464,-122.79451 16.19845,-106.39186 24.575562,-92.848876 C 28.035461,-88.591146 30.922877,-75.230115 37.515942,-77.629143 z M 6.0442629,-116.84234 C 1.9336697,-126.78196 0.47469603,-138.31712 -6.5334738,-146.74232 C -19.075136,-156.84049 -20.463936,-175.41105 -33.374035,-184.98412 C -43.67733,-189.7945 -53.492214,-195.74545 -63.846446,-200.3065 C -83.650899,-206.6997 -103.7185,-213.79205 -124.84024,-213.30418 C -148.82515,-214.12935 -173.44237,-212.87892 -195.78406,-203.25447 C -205.45719,-198.97449 -218.74775,-195.4061 -227.36349,-203.607 C -221.17576,-208.56675 -207.80533,-202.07207 -199.82919,-208.96677 C -192.77323,-218.84044 -214.92344,-215.07974 -220.269,-219.6713 C -236.20273,-222.41638 -252.65791,-222.52896 -268.41456,-226.63001 C -287.41775,-229.00282 -306.48702,-226.70487 -325.42432,-225.04824 C -353.94173,-224.17098 -382.53277,-223.26025 -411.04565,-224.33497 C -428.74474,-230.50915 -448.04043,-229.02333 -466.21532,-225.98393 C -492.38075,-227.53482 -518.67786,-229.82948 -544.85281,-227.42044 C -564.18216,-227.65239 -585.0909,-230.79832 -602.3793,-219.76989 C -611.04193,-217.97979 -614.86089,-204.25846 -602.72023,-208.47864 C -594.25056,-210.18906 -588.09228,-222.93975 -579.992,-214.62277 C -568.66094,-214.6317 -558.30566,-216.10465 -547.42822,-213.93561 C -534.58326,-215.91251 -521.63511,-215.27802 -508.8807,-213.18686 C -503.49461,-213.71516 -486.15316,-212.52674 -499.604,-207.93958 C -503.2898,-205.41105 -507.09518,-206.84368 -510.90008,-208.26004 C -523.99109,-213.05356 -539.08267,-212.09941 -551.86387,-206.82216 C -558.68415,-197.91918 -540.27568,-191.88939 -532.94132,-192.8179 C -522.31098,-191.39276 -511.66389,-192.51206 -501.87763,-187.09271 C -492.17655,-181.05 -480.07631,-184.15878 -469.24745,-183.27035 C -453.2819,-181.70548 -444.12645,-197.74805 -429.79719,-201.18588 C -418.89395,-199.44762 -407.66258,-197.27296 -396.52354,-195.94561 C -384.65572,-195.04547 -372.71627,-195.92094 -360.86585,-194.82215 C -357.16299,-186.54152 -375.56956,-191.04296 -380.71146,-190.29122 C -391.46126,-190.55246 -402.35254,-192.92845 -413.00772,-191.57544 C -413.49976,-183.61806 -396.03627,-183.72564 -389.82224,-179.34074 C -378.96905,-177.04174 -369.53732,-171.64215 -359.19551,-167.74336 C -349.09513,-164.71793 -339.1996,-161.02969 -329.32488,-157.39253 C -317.81705,-155.81802 -306.36984,-153.78647 -294.83797,-152.38111 C -267.95791,-151.19282 -240.78161,-145.02406 -214.05657,-151.16142 C -203.46257,-153.10952 -193.18971,-162.30712 -183.39627,-152.16942 C -171.15987,-147.84375 -157.9406,-146.85381 -145.36691,-143.58865 C -114.03893,-136.68392 -81.738878,-140.34032 -50.044496,-137.39078 C -37.676765,-132.10364 -21.851852,-135.83793 -11.489731,-125.99829 C -7.5466683,-122.03234 0.15127116,-113.08967 6.0442629,-116.84234 z M -201.78406,-169.48587 C -207.46158,-174.57462 -222.89076,-175.3018 -223.16869,-182.52111 C -211.24249,-189.25007 -204.15503,-179.47575 -195.86853,-172.80167 C -192.66878,-169.84758 -173.15477,-164.51091 -184.5663,-161.79722 C -190.60247,-163.56913 -196.10306,-166.84121 -201.78406,-169.48587 z M 399.21594,-144.92482 C 423.40379,-147.81616 447.4803,-153.18507 470.03212,-162.4865 C 488.1775,-167.77978 506.54287,-174.42324 520.84662,-187.21763 C 530.1061,-188.94307 536.52646,-204.98543 545.71593,-199.92777 C 535.73212,-188.57711 522.31178,-180.87613 509.76418,-172.70069 C 504.96239,-161.1875 526.45925,-162.63053 534.13984,-160.3381 C 545.10349,-158.78167 556.06157,-162.23846 567.1309,-161.90408 C 592.25624,-162.673 617.35169,-164.08142 642.35377,-166.69065 C 656.42483,-166.68407 668.66225,-174.67878 682.21593,-177.38558 C 693.56372,-179.48035 703.86874,-185.76215 715.53663,-185.83306 C 720.40515,-186.45516 737.31528,-189.82117 730.30051,-194.6709 C 720.54803,-196.21255 706.62968,-192.77685 699.45557,-198.88341 C 714.99695,-201.08264 730.97537,-199.7692 746.68548,-200.30072 C 757.15849,-201.91545 766.24635,-196.84436 776.04453,-194.42037 C 785.91727,-191.43894 795.59821,-185.93899 806.19003,-189.83285 C 815.49659,-190.29179 820.18455,-200.58932 828.94488,-201.27473 C 833.81704,-208.60611 857.98795,-200.91753 847.49339,-213.99699 C 846.87249,-221.74933 857.84197,-209.89867 858.07156,-206.2918 C 867.92789,-200.78585 885.75169,-215.0303 872.81376,-222.48379 C 861.80169,-224.12781 850.20352,-228.32973 839.16982,-226.1447 C 830.67319,-225.33916 820.75694,-215.66611 813.37419,-220.44038 C 812.92854,-232.47257 830.12669,-227.56162 837.81237,-231.61537 C 851.03588,-234.44305 863.7575,-228.25363 876.98222,-228.44412 C 887.9305,-227.72204 899.12187,-226.36684 909.72244,-229.69494 C 916.82968,-228.43308 936.08379,-223.93474 932.89889,-236.18807 C 924.21523,-242.87241 911.38078,-238.73852 900.96214,-240.15917 C 877.59204,-239.93223 854.25511,-242.62157 830.90337,-241.72182 C 815.08541,-239.89433 798.98658,-238.24774 783.80567,-233.26942 C 775.95662,-226.77199 765.02315,-229.38944 756.09691,-231.83182 C 738.74451,-232.14134 721.6953,-227.46174 704.28351,-228.26408 C 670.53212,-227.71906 636.76743,-228.42226 603.08056,-230.44614 C 584.99703,-230.42447 566.68464,-231.229 548.78713,-228.46723 C 540.58313,-222.80951 563.86932,-214.26946 549.30683,-212.75904 C 536.10651,-215.78744 522.54238,-216.86135 509.26667,-219.56688 C 492.91675,-220.91005 476.44252,-223.89819 460.02953,-222.38091 C 445.83319,-219.38537 431.27087,-219.03442 416.96593,-217.12012 C 415.63789,-202.61851 401.11688,-216.56643 394.58565,-220.04169 C 384.18256,-224.77742 373.54549,-229.67684 361.80033,-229.26745 C 347.20698,-229.71339 333.1061,-225.07375 318.81911,-222.73393 C 308.19243,-219.63271 297.45147,-216.78961 287.67837,-211.44469 C 279.21912,-204.66637 300.84207,-199.89291 306.63263,-197.51488 C 314.21093,-197.49469 307.548,-184.50856 318.11735,-186.66609 C 340.59373,-187.42724 365.8641,-177.9424 376.1744,-156.72431 C 376.92917,-147.03961 382.42886,-140.51781 392.62705,-144.38295 C 394.82302,-144.56749 397.01924,-144.74919 399.21594,-144.92482 z M 801.25861,-216.36005 C 802.58548,-222.18309 807.66148,-212.56759 801.25861,-216.36005 z M 361.71594,-166.3067 C 360.70818,-174.53259 347.54863,-170.38174 356.65382,-164.73363 C 358.1126,-164.45479 361.86748,-163.72095 361.71594,-166.3067 z M -518.78406,-185.92914 C -521.72316,-192.9021 -533.32873,-183.58888 -521.22369,-183.64065 C -520.04745,-183.71131 -518.73744,-184.65709 -518.78406,-185.92914 z M -590.18622,-190.09023 C -584.21464,-197.23835 -570.18728,-193.43025 -566.49115,-199.24127 C -575.63161,-203.87345 -588.42768,-200.33281 -596.04677,-193.66705 C -604.54498,-188.86373 -598.25982,-183.23539 -591.8448,-189.0166 L -590.18619,-190.09023 L -590.18622,-190.09023 z M -577.30432,-188.03772 C -563.62802,-195.81987 -594.37786,-190.67781 -582.8335,-186.50584 C -580.91847,-186.72271 -579.08484,-187.33322 -577.30432,-188.03772 z M 208.74344,-188.14415 C 218.00379,-195.69448 228.43496,-201.86624 239.11466,-207.15266 C 251.23151,-208.67957 242.45506,-218.68243 234.63338,-218.4625 C 220.43711,-218.13502 220.5512,-231.46146 223.49496,-242.08345 C 225.42026,-249.51736 220.63166,-258.04694 214.37654,-248.66944 C 205.92816,-240.74713 193.92668,-235.31902 189.21856,-224.16754 C 188.81898,-212.96015 177.41302,-202.94743 186.56002,-192.34148 C 190.50691,-184.57421 201.96505,-185.75859 208.74344,-188.14415 z M -595.74133,-197.92914 C -588.15184,-206.25768 -579.60201,-206.30032 -569.39291,-204.40281 C -563.45653,-201.89948 -549.76579,-209.34626 -562.24523,-210.23632 C -571.08983,-210.56654 -580.28563,-211.72951 -589.00179,-211.27903 C -596.08169,-206.51656 -603.86695,-202.96616 -611.45696,-199.27202 C -621.52029,-188.27496 -598.24117,-192.2919 -595.74133,-197.92914 z M 898.09821,-207.41145 C 899.57424,-214.20325 880.51287,-212.60382 881.14155,-207.73901 C 884.50112,-203.77399 893.7702,-206.0068 898.09821,-207.41145 z M 919.21594,-210.92914 C 916.50189,-217.8948 895.14988,-209.65317 909.50392,-208.58318 C 912.16802,-209.20723 918.56009,-207.37964 919.21594,-210.92914 z M 66.515945,-211.62914 C 67.701949,-221.94552 53.96673,-228.92182 50.243328,-238.6956 C 46.209843,-249.10427 38.450582,-243.60332 37.921283,-234.92914 C 31.902849,-225.50768 37.076859,-217.69317 47.45509,-216.27814 C 53.640128,-214.98742 60.131453,-208.0774 66.515945,-211.62914 z M 937.82312,-219.02612 C 943.86779,-228.95532 925.84705,-221.48446 920.62378,-223.34947 C 909.27732,-223.04861 920.76344,-212.50909 926.97653,-216.73307 C 930.58785,-217.16349 934.67876,-216.90102 937.82312,-219.02612 z M 909.51593,-218.62914 C 910.20703,-228.18958 891.60893,-221.75066 885.42762,-220.00954 C 887.30257,-214.93892 903.62024,-217.84801 909.51593,-218.62914 z M 28.138363,-224.03773 C 32.398557,-232.82722 36.844963,-242.51119 37.873415,-252.37982 C 39.435554,-274.0961 33.148448,-295.23503 26.336404,-315.55672 C 17.236078,-336.32101 6.8118258,-356.52439 -5.4680827,-375.5766 C -9.9044767,-386.09888 -16.558462,-398.31191 -12.747397,-409.86264 C -10.513492,-420.32755 -13.904735,-431.98624 -6.9610312,-441.47596 C 8.5059096,-470.96711 28.847004,-497.87762 40.653763,-529.25618 C 49.629098,-550.84047 53.205198,-574.11969 59.917767,-596.43251 C 64.098634,-615.06736 71.205618,-632.80253 80.135762,-649.6506 C 84.692687,-660.57736 92.249348,-669.6076 99.930024,-678.4127 C 106.35297,-684.32367 89.766861,-687.3682 99.952281,-692.80035 C 103.92241,-694.34741 121.02514,-684.75677 113.59509,-694.35962 C 107.33563,-704.47921 95.63423,-703.36113 88.772343,-694.89428 C 88.831936,-703.99201 77.696518,-720.88135 72.626015,-705.61145 C 72.609296,-694.13785 57.390936,-691.72699 52.297217,-681.72672 C 36.724944,-665.82158 27.875123,-645.17573 16.634801,-626.32714 C -1.249439,-602.48638 -17.90743,-577.61257 -32.732129,-551.73749 C -39.595908,-540.99153 -41.349222,-528.23888 -47.490253,-517.18477 C -59.269412,-493.0981 -66.916661,-467.23235 -71.723976,-440.90103 C -73.765288,-432.78981 -78.638254,-425.48707 -81.247673,-417.74975 C -79.145678,-405.50376 -79.415001,-392.43563 -73.715402,-381.21493 C -77.103667,-370.03604 -71.957799,-358.65204 -70.809387,-347.42914 C -65.785977,-322.44459 -61.254787,-297.35815 -54.866231,-272.66808 C -51.314398,-258.77094 -48.08886,-244.76587 -43.752337,-231.08766 C -33.701443,-229.39013 -21.870148,-233.05557 -10.940378,-229.72558 C 1.1706738,-228.56845 13.542776,-228.1082 25.024668,-223.68583 L 26.664681,-223.62422 L 28.138363,-224.03774 L 28.138363,-224.03773 z M 153.68034,-224.38599 C 154.70835,-228.84392 156.85769,-236.12777 162.26279,-230.49278 C 164.60483,-215.87665 181.4013,-227.41336 187.72322,-233.30453 C 196.14079,-240.61302 205.55347,-247.05311 213.00276,-255.2965 C 217.09024,-264.74165 225.77033,-274.84571 223.02728,-285.47643 C 218.94386,-288.33931 198.45315,-281.95297 207.81866,-290.23192 C 218.84426,-289.60046 226.13194,-299.91223 226.80749,-309.93883 C 233.79095,-318.65186 216.35631,-333.00107 230.75208,-334.59968 C 233.16104,-344.7971 234.99273,-355.4972 232.03652,-365.80291 C 235.83714,-374.93279 234.53662,-385.56414 230.38037,-394.82685 C 227.22592,-405.70538 217.71075,-412.19748 208.26844,-417.31337 C 198.35911,-425.00059 186.2832,-427.61337 173.93892,-426.51521 C 157.03176,-426.16485 139.84775,-426.53827 123.25129,-422.98675 C 108.44696,-417.02147 93.576901,-406.57711 89.045233,-390.46182 C 86.606214,-378.77734 87.940598,-366.59779 88.095559,-354.73506 C 88.4391,-345.56733 94.209329,-333.40431 101.90238,-331.11745 C 99.875703,-340.43172 97.967325,-350.52892 99.169538,-360.68677 C 95.979734,-369.73158 95.58834,-380.93902 99.565802,-389.45814 C 99.518745,-378.01474 104.08423,-366.87974 105.45869,-355.66699 C 100.43289,-348.24694 101.7967,-337.50584 112.21083,-345.28402 C 122.99176,-347.64043 135.52472,-347.80345 145.73794,-343.11838 C 152.27139,-331.76068 169.29455,-351.61571 167.69747,-335.02672 C 161.39721,-334.57103 151.6697,-339.69405 155.19314,-328.59343 C 157.64014,-318.74333 145.85178,-315.21468 145.63244,-325.48374 C 138.2851,-323.66724 136.57231,-337.9196 130.20065,-326.30111 C 127.47897,-324.22873 121.29718,-337.2086 117.96608,-329.27767 C 108.91469,-322.6237 113.83637,-336.54429 119.92295,-335.59512 C 128.23184,-335.83497 137.40073,-333.03404 144.92717,-337.40999 C 141.31665,-345.8448 125.37772,-342.7627 116.69053,-343.01585 C 106.84241,-339.96109 103.76715,-329.36851 99.213998,-321.49713 C 96.723695,-308.2983 100.76363,-292.68956 113.36086,-285.99377 C 111.77366,-280.01348 97.72595,-285.73597 101.74061,-275.01685 C 101.17886,-263.58583 106.78221,-253.12468 115.13236,-245.65317 C 124.53901,-239.46707 132.05281,-230.74715 141.21594,-224.14659 C 145.27801,-223.4484 149.69428,-223.15498 153.68034,-224.38599 z M 156.65623,-246.64693 C 144.44479,-255.40908 169.83114,-257.30893 168.75364,-251.45243 C 166.24387,-246.8715 161.7453,-244.3005 156.65623,-246.64693 z M 140.71594,-261.35211 C 146.94115,-269.18417 159.75158,-265.15987 168.89051,-266.04613 C 173.26868,-267.81846 190.85934,-262.14411 181.48544,-259.94455 C 168.11098,-260.90349 154.49035,-261.27656 141.19064,-259.7244 L 140.80801,-260.25736 L 140.71594,-261.35212 L 140.71594,-261.35211 z M 196.38264,-260.09583 C 192.44404,-265.69477 199.97199,-274.50159 199.71594,-264.42914 C 199.78566,-262.43559 199.76657,-257.4723 196.38264,-260.09583 z M 122.65926,-263.07822 C 120.11802,-267.82623 128.99876,-286.20424 128.36999,-272.89088 C 128.29538,-270.46258 126.78215,-253.89531 122.65926,-263.07822 z M 155.27484,-278.96094 C 145.59741,-277.88415 134.5401,-286.73147 144.70533,-295.35491 C 148.79622,-298.40576 154.93392,-311.26393 153.19951,-298.67656 C 143.3514,-295.18394 144.80512,-282.32613 155.9575,-284.45095 C 162.56613,-275.86016 186.83745,-289.29833 172.83639,-296.74463 C 160.29373,-299.04604 177.20868,-318.90252 177.31794,-309.2713 C 170.81239,-299.96255 189.09585,-286.11645 174.05624,-281.00535 C 168.84041,-276.70588 161.40075,-276.36126 155.27484,-278.96094 z M 170.38264,-324.09583 C 166.9926,-334.04291 175.54651,-345.8101 185.91379,-346.00767 C 195.52532,-347.39917 205.47386,-346.93287 214.9119,-344.71299 C 222.36205,-350.64497 207.67127,-362.03657 217.57483,-369.38319 C 218.09336,-373.40935 218.61888,-388.0264 224.48369,-379.5893 C 224.43462,-368.25285 217.86346,-358.18045 221.66631,-346.61622 C 223.08495,-341.87301 217.29235,-322.18791 216.45349,-335.68773 C 210.05829,-345.27878 195.12727,-342.30027 185.08086,-341.46543 C 175.17928,-330.83 196.90017,-334.95388 202.8141,-333.57269 C 209.21837,-335.07342 213.40518,-323.05929 205.85313,-325.47179 C 202.66736,-336.79835 192.50515,-320.23649 186.21048,-329.36082 C 181.76023,-324.09214 173.99124,-333.49006 172.59555,-323.60507 L 171.52685,-323.4224 L 170.38264,-324.09581 L 170.38264,-324.09583 z M 149.96594,-364.13486 C 141.1943,-372.45621 176.05348,-368.1785 161.54384,-363.57423 C 157.68388,-363.51732 153.79635,-363.64 149.96594,-364.13486 z M 155.21594,-391.33936 C 146.74541,-390.95065 147.86859,-399.55396 156.16855,-397.27032 C 163.60696,-395.79454 177.43474,-400.40932 180.93432,-393.83902 C 173.19321,-390.9224 163.46736,-390.14676 155.21594,-391.33936 z M 96.042595,-288.17914 C 101.95962,-299.22623 88.139192,-305.1342 92.419891,-316.28627 C 87.093827,-326.89952 80.768905,-310.71818 86.221633,-305.42914 C 87.877704,-300.3732 88.225655,-285.6253 96.042595,-288.17914 z M 237.42635,-294.58945 C 242.35222,-305.4366 247.38911,-317.88943 244.78578,-329.93915 C 239.96802,-342.97569 223.9338,-315.43148 237.2924,-325.34894 C 239.7304,-322.96579 226.22337,-315.00359 234.24046,-310.32868 C 231.91472,-304.10728 224.67413,-291.79239 232.51082,-288.32444 C 234.65892,-289.95183 236.01144,-292.35594 237.42635,-294.58945 z M 86.265381,-323.16586 C 88.945174,-325.09648 96.239721,-318.55765 93.783799,-327.45816 C 90.812815,-341.15612 76.718491,-326.76511 84.781089,-321.6562 L 86.265383,-323.16586 L 86.265381,-323.16586 z M 134.25864,-704.02643 C 140.50607,-712.92613 145.04588,-723.37258 156.13607,-727.6135 C 169.52575,-736.40974 150.22514,-747.86037 142.49428,-737.44571 C 139.89883,-733.22682 144.64448,-724.97712 136.62452,-727.42914 C 125.92615,-727.72548 115.19592,-715.10086 114.17161,-705.31735 C 118.2552,-699.66453 129.61041,-696.65393 134.25864,-704.02643 z M 107.75555,-707.67914 C 109.3852,-719.69954 122.47128,-725.70875 125.14307,-737.5563 C 129.61846,-744.38207 110.80907,-748.02852 121.52496,-751.44445 C 132.46572,-752.39089 125.68333,-769.88597 137.75459,-770.47165 C 145.69064,-779.30965 154.78515,-787.09752 162.71616,-795.94891 C 168.38266,-805.51384 157.1183,-806.37352 153.09233,-799.31199 C 145.51904,-791.53562 136.97603,-785.03624 128.49108,-778.45727 C 118.49211,-774.13384 110.12445,-766.56378 105.87278,-756.59734 C 97.818772,-746.44589 88.401786,-736.21081 87.089215,-722.71386 C 84.497462,-715.08115 89.290821,-711.39415 95.550004,-710.50124 C 98.190982,-706.07558 104.16632,-700.77757 107.75555,-707.67914 z M 136.64334,-753.06403 C 143.55868,-763.1832 128.69074,-762.00443 130.75954,-752.24997 C 131.44976,-748.64262 135.41256,-751.32147 136.64334,-753.06403 z M 145.08875,-765.67914 C 150.58651,-772.23297 144.38519,-774.51963 140.77719,-768.00472 C 136.57877,-764.06451 142.83051,-761.47716 145.08875,-765.67914 z M 149.57204,-802.29211 C 153.60743,-810.44446 176.20369,-804.85671 167.30951,-816.72995 C 158.75665,-814.88189 145.35925,-808.20406 143.27769,-799.51268 C 145.69422,-799.24297 147.72782,-801.0104 149.57204,-802.29211 z M 155.81894,-815.60718 C 166.94301,-819.71039 153.69573,-831.57638 150.74554,-820.17914 C 144.5701,-811.86861 149.2782,-812.35614 155.81894,-815.60718 z"
         id="path2251" />
    </g>
    <g
       id="layer8">
      <path
         d="M 583.59213,1446.9857 L 629.94835,1492.9724 M 653.11142,1515.9511 L 700.96264,1563.421 M 724.13156,1586.4055 L 766.73535,1628.6701 M 792.89449,1654.6206 L 838.5002,1699.8629 M 863.1643,1724.3305 L 898.311,1759.9123 M 145.20629,1759.2009 L 196.73823,1710.2711 M 221.4202,1688.0194 L 253.60672,1656.1902 M 285.71613,1623.5272 L 321.63103,1588.7083 M 351.51882,1559.023 L 390.39378,1520.493 M 415.82036,1495.2691 L 461.40813,1450.0448 M 490.59877,1422.623 L 524.04194,1387.9098 L 544.73489,1408.4379 L 558.93412,1422.524"
         style="fill:none;fill-opacity:1;stroke:#000000;stroke-width:2.07634974;stroke-opacity:1"
         id="path8371" />
      <path
         d="M 581.30918,-138.18123 L 627.66517,-92.19437 M 650.82822,-69.215811 L 698.67934,-21.745909 M 721.84846,1.238526 L 764.45226,43.502903 M 790.6114,69.453573 L 836.21684,114.69593 M 860.88101,139.1636 L 899.75034,177.72312 M 925.90351,203.66794 L 972.99804,250.38748 M 995.42864,272.63934 L 1039.5332,316.3926 M 1063.447,340.1156 L 1107.5634,383.88094 M 1134.4553,410.55835 L 1179.3105,455.05605 M 1207.7206,483.24021 L 1247.3407,522.54441 M 1275.0008,549.98414 L 1298.1699,572.96857 L 1314.8165,589.48242 L 1288.6335,615.45636 L 1270.6881,633.25915 M 1243.034,660.69285 L 1200.4184,702.96892 M 1176.4985,726.69796 L 1136.1347,766.74071 M 1106.9919,795.65164 L 1065.1322,837.17746 M 1038.2047,863.8903 L 998.59104,903.18842 M 967.20254,934.3269 L 926.83214,974.37543 M 901.42952,999.57575 L 857.33084,1043.3232 M 832.649,1067.8084 L 791.54616,1108.5838 M 767.62655,1132.313 L 722.0267,1177.5493 M 694.36075,1204.995 L 652.50745,1246.5148 M 627.83131,1270.9942 L 588.2298,1310.2805 M 562.05295,1336.2489 L 538.87778,1359.2393 L 521.75877,1376.222 L 491.07967,1345.7872 L 476.13599,1330.9625 M 456.70133,1311.6827 L 408.86214,1264.2245 M 381.95855,1237.5353 L 344.58416,1200.4589 M 313.92817,1170.0475 L 277.30444,1133.715 M 248.89993,1105.5371 L 204.79519,1061.7839 M 177.89161,1035.0944 L 133.77481,991.32941 M 111.36221,969.09504 L 63.522997,921.63699 M 44.082317,902.35138 L 1.478754,860.08696 M -24.680386,834.13637 L -68.791183,790.37729 M -94.950113,764.42654 L -139.81136,719.92261 M -162.96859,696.95008 L -207.07918,653.19079 M -233.98275,626.50155 L -253.42347,607.21566 L -271.29923,589.48242 L -246.52073,564.90133 L -230.82055,549.32623 M -206.14444,524.8467 L -170.26513,489.25321 M 135.4782,185.94607 L 181.79828,139.99474 M 206.48042,115.50935 L 251.32356,71.023337 M 275.24315,47.294253 L 319.34788,3.5410112 M 344.76841,-21.676904 L 388.11079,-64.674053 M 413.53719,-89.897921 L 459.12497,-135.12242 M 72.665297,247.49002 L 111.77641,207.68507 M -1.327004,321.66113 L 37.170007,283.47083 M -70.846233,390.62651 L -20.761664,340.94094 M -145.56543,467.04907 L -91.918183,410.50142 M 488.31562,-162.54403 L 521.75877,-197.25724 L 542.45193,-176.72905 L 556.65117,-162.6429"
         style="fill:none;fill-opacity:1;stroke:#000000;stroke-width:2.07634974;stroke-opacity:1"
         id="path8730" />
      <g
         transform="matrix(2.08466,0,0,2.08466,2662.732,-747.1544)"
         id="g8735">
        <path
           d="M -1217.2262,830.97053 L -1205.3401,819.17913 L -1197.8088,811.70783 M -1185.9718,799.96513 L -1168.7607,782.89113 M -1022.0973,637.39633 L -999.87781,615.35373 M -988.038,603.60823 L -966.527,582.26853 M -955.0529,570.88583 L -933.8961,549.89763 M -921.702,537.80073 L -900.9109,517.17523 M -888.714,505.07548 L -866.8458,483.38153 M -1052.2283,666.91863 L -1033.4669,647.82443 M -1087.722,702.49813 L -1069.2552,684.17843 M -1121.07,735.58043 L -1097.0447,711.74653 M -1156.9124,772.23993 L -1131.1781,745.11433 M -852.8432,470.22753 L -836.8007,453.5758"
           style="fill:none;fill-opacity:1;stroke:#000000;stroke-width:0.99601394;stroke-opacity:1"
           id="rect2686" />
        <path
           d="M -1188.6602,481.91423 L -1166.4234,503.97388 M -1155.3122,514.99658 L -1132.3583,537.76763 M -1121.2442,548.79313 L -1100.8074,569.06713 M -1088.259,581.51553 L -1066.3823,603.21803 M -1054.551,614.95503 L -1035.9056,633.45183 M -1023.3601,645.89743 L -1000.7691,668.30853 M -990.00921,678.98263 L -968.85241,699.97083 M -957.38121,711.35063 L -936.21871,732.34463 M -923.31891,745.14163 L -901.80211,766.48693 M -888.17381,780.00673 L -869.16841,798.86073 M -855.90001,812.02343 L -844.78591,823.04893 L -836.80071,830.97053 M -1217.2262,453.5758 L -1207.2998,463.42306 L -1200.4885,470.18011"
           style="fill:none;fill-opacity:1;stroke:#000000;stroke-width:0.99601394;stroke-opacity:1"
           id="path8732" />
      </g>
    </g>
    <g
       id="layer7">
      <g
         transform="matrix(2.08466,0,0,2.08466,-2110.297,-268.4007)"
         id="g7280">
        <path
           d="M 1243.4978,973.04556 L 1219.5066,973.04556 M 1273.2973,973.04556 L 1249.5587,973.04556 M 1303.0968,973.04556 L 1279.3583,973.04556 M 1332.6438,973.04556 L 1309.4102,973.04556 M 1362.1907,973.04556 L 1339.4623,973.04556 M 1392.4952,973.04556 L 1369.2618,973.04556 M 1422.2948,973.04556 L 1398.5562,973.04556 M 1452.0943,973.04556 L 1428.3557,973.04556 M 1482.3988,973.04556 L 1458.4077,973.04556 M 1511.9458,973.04556 L 1488.2073,973.04556 M 1571.7973,973.04556 L 1548.3114,973.04556 L 1541.9978,973.04556 L 1517.5017,973.04556 M 1601.3443,973.04556 L 1577.3533,973.04556 M 1661.1958,973.04556 L 1637.4573,973.04556 L 1630.8913,973.04556 L 1607.4052,973.04556 M 1213.4458,973.04556 L 1189.7072,973.04556 M 1183.8988,973.04556 L 1159.9076,973.04556 M 1153.8468,973.04556 L 1129.8556,973.04556 M 1124.2998,973.04556 L 1099.8036,973.04556 M 1094.2477,973.04556 L 1070.7617,973.04556 M 1064.4482,973.04556 L 1040.7096,973.04556 M 1034.3962,973.04556 L 1010.9102,973.04556 M 1004.5967,973.04556 L 981.36319,973.04556 L 974.79718,973.04556 L 951.31119,973.04556 M 945.50277,973.04556 L 921.76421,973.04556 M 915.71431,973.04556 L 891.78572,973.04556 L 886.4286,973.04556 L 862.14285,973.04556 M 856.42859,973.04556 L 805.79369,973.04556 C 795.73569,973.04556 787.58269,959.73256 787.58269,943.31455 L 787.58269,66.208511 C 787.58269,49.789509 796.45969,35.222509 823.12669,35.222509 L 855.08283,35.113177 M 1667.143,-23.837251 L 1712.0267,-23.787491 C 1731.1937,-24.287491 1734.4037,-4.2104911 1734.4037,12.208509 L 1737.5827,943.31455 C 1737.5827,959.73356 1729.4287,973.04556 1719.3717,973.04556 L 1667.5094,973.04556 M 1637.5,-23.870115 L 1661.6073,-23.843388 M 1607.6784,-23.903176 L 1631.6074,-23.876648 M 1578.0357,-23.93604 L 1601.6076,-23.909907 M 1548.0357,-23.969299 L 1571.6075,-23.943166 M 1518.3932,-24.002162 L 1541.6076,-23.976426 M 1488.9287,-24.034828 L 1512.143,-24.009092 M 1458.7506,-24.068285 L 1482.3216,-24.042153 M 1428.7506,-24.101544 L 1452.5004,-24.075214 M 1398.9288,-24.134606 L 1422.8574,-24.108078 M 1369.643,-24.167074 L 1392.6789,-24.141535 M 1339.8215,-24.200135 L 1362.6785,-24.174795 M 1309.6433,-24.233592 L 1333.3934,-24.207262 M 1280.0002,-24.266456 L 1303.393,-24.240522 M 1261.0267,-24.287491 L 1273.3927,-24.273782 M 1070.3578,35.296213 L 1093.9285,35.320009 M 1219.2854,35.446568 L 1242.4997,35.470005 M 1248.7767,35.47508 L 1261.3838,35.43708 M 1189.4641,35.417723 L 1212.4998,35.438996 M 1159.9998,35.386714 L 1183.2141,35.410151 M 1129.6432,35.356066 L 1153.2145,35.379864 M 1099.9999,35.326139 L 1123.572,35.350658 M 1040.3575,35.265925 L 1064.2863,35.290083 M 1010.3571,35.235636 L 1034.2857,35.260876 M 980.35678,35.205348 L 1004.2861,35.230228 M 951.42863,35.176143 L 974.82178,35.200662 M 921.42831,35.145855 L 945.00044,35.169653 M 891.07157,35.115207 L 914.9997,35.318296 M 861.79671,35.093584 L 885.00009,35.109077"
           style="fill:none;stroke:#000000"
           id="path2329" />
        <path
           d="M 963.0247,973.04606 C 956.4287,973.04606 951.0827,967.7268 951.0827,961.16604 L 951.0827,610.68269 C 951.0827,604.12194 956.4297,598.80268 963.0247,598.80268 L 1562.1397,598.80268 C 1568.7347,598.80268 1574.0817,604.12194 1574.0817,610.68269 L 1574.0817,961.16604 L 1574.0827,961.16604 C 1574.0827,967.7268 1568.7347,973.04606 1562.1407,973.04606 L 1518.5714,973.04606"
           style="fill:none;stroke:#000000;stroke-width:0.99899197"
           id="path2332" />
        <path
           d="M 881.2837,973.04606 C 872.8877,973.04606 866.0827,962.39257 866.0827,949.2531 L 866.0827,247.35129 C 866.0827,234.21182 872.88869,223.55933 881.2837,223.55933 L 1643.8817,223.55933 C 1652.2767,223.55933 1659.0827,234.21182 1659.0827,247.35129 L 1659.0827,949.2531 C 1659.0827,962.39257 1652.2757,973.04606 1643.8817,973.04606 L 1609.2857,973.04606"
           style="fill:none;stroke:#000000;stroke-width:0.99899197"
           id="path2334" />
      </g>
    </g>
    <g
       id="layer9">
      <g
         transform="matrix(2.08466,0,0,2.08466,2676.162,962.775)"
         id="g9637">
        <path
           d="M -973.78704,-328.51636 C -973.77923,-307.86817 -988.70612,-291.12486 -1007.1221,-291.12486 C -1025.538,-291.12486 -1040.4649,-307.86817 -1040.4571,-328.51636 C -1040.4649,-349.16455 -1025.538,-365.90786 -1007.1221,-365.90786 C -988.70612,-365.90786 -973.77923,-349.16455 -973.78704,-328.51636 z"
           transform="matrix(0.940627,0,0,0.838938,-86.63417,-59.57746)"
           style="fill:none;fill-opacity:1;stroke:#000000;stroke-opacity:1"
           id="path8740" />
        <path
           d="M -973.78704,-328.51636 C -973.77923,-307.86817 -988.70612,-291.12486 -1007.1221,-291.12486 C -1025.538,-291.12486 -1040.4649,-307.86817 -1040.4571,-328.51636 C -1040.4649,-349.16455 -1025.538,-365.90786 -1007.1221,-365.90786 C -988.70612,-365.90786 -973.77923,-349.16455 -973.78704,-328.51636 z"
           transform="matrix(0.940627,0,0,0.838938,-86.63429,2.746853)"
           style="fill:none;fill-opacity:1;stroke:#000000;stroke-opacity:1"
           id="path9629" />
        <path
           d="M -973.78704,-328.51636 C -973.77923,-307.86817 -988.70612,-291.12486 -1007.1221,-291.12486 C -1025.538,-291.12486 -1040.4649,-307.86817 -1040.4571,-328.51636 C -1040.4649,-349.16455 -1025.538,-365.90786 -1007.1221,-365.90786 C -988.70612,-365.90786 -973.77923,-349.16455 -973.78704,-328.51636 z"
           transform="matrix(0.940627,0,0,0.838938,-86.63417,97.51853)"
           style="fill:none;fill-opacity:1;stroke:#000000;stroke-opacity:1"
           id="path9631" />
        <path
           d="M -973.78704,-328.51636 C -973.77923,-307.86817 -988.70612,-291.12486 -1007.1221,-291.12486 C -1025.538,-291.12486 -1040.4649,-307.86817 -1040.4571,-328.51636 C -1040.4649,-349.16455 -1025.538,-365.90786 -1007.1221,-365.90786 C -988.70612,-365.90786 -973.77923,-349.16455 -973.78704,-328.51636 z"
           transform="matrix(0.940627,0,0,0.838938,-86.63429,190.8383)"
           style="fill:none;fill-opacity:1;stroke:#000000;stroke-opacity:1"
           id="path9633" />
        <path
           d="M -973.78704,-328.51636 C -973.77923,-307.86817 -988.70612,-291.12486 -1007.1221,-291.12486 C -1025.538,-291.12486 -1040.4649,-307.86817 -1040.4571,-328.51636 C -1040.4649,-349.16455 -1025.538,-365.90786 -1007.1221,-365.90786 C -988.70612,-365.90786 -973.77923,-349.16455 -973.78704,-328.51636 z"
           transform="matrix(0.940627,0,0,0.838938,-85.62413,252.9018)"
           style="fill:none;fill-opacity:1;stroke:#000000;stroke-opacity:1"
           id="path9635" />
      </g>
    </g>
    <g
       id="layer6">
      <g
         transform="matrix(2.08466,0,0,2.08466,395.4574,-580.2128)"
         id="g3612">
        <circle
           cx="490.056"
           cy="211.539"
           r="62.362"
           transform="translate(-429.47,100.8242)"
           style="fill:none;stroke:#000000"
           id="circle2273"
           sodipodi:cx="490.056"
           sodipodi:cy="211.539"
           sodipodi:rx="62.362"
           sodipodi:ry="62.362" />
        <circle
           cx="490.056"
           cy="87.110001"
           r="62.362"
           transform="translate(-429.47,100.5389)"
           style="fill:none;stroke:#000000"
           id="circle2275"
           sodipodi:cx="490.056"
           sodipodi:cy="87.110001"
           sodipodi:rx="62.362"
           sodipodi:ry="62.362" />
        <circle
           cx="490.056"
           cy="335.96701"
           r="62.362"
           transform="translate(-429.47,101.1105)"
           style="fill:none;stroke:#000000"
           id="circle2277"
           sodipodi:cx="490.056"
           sodipodi:cy="335.96701"
           sodipodi:rx="62.362"
           sodipodi:ry="62.362" />
        <circle
           cx="490.056"
           cy="460.396"
           r="62.362"
           transform="translate(-429.47,101.3958)"
           style="fill:none;stroke:#000000"
           id="circle2279"
           sodipodi:cx="490.056"
           sodipodi:cy="460.396"
           sodipodi:rx="62.362"
           sodipodi:ry="62.362" />
        <circle
           cx="490.056"
           cy="584.82397"
           r="62.362"
           transform="translate(-429.47,101.6821)"
           style="fill:none;stroke:#000000"
           id="circle2281"
           sodipodi:cx="490.056"
           sodipodi:cy="584.82397"
           sodipodi:rx="62.362"
           sodipodi:ry="62.362" />
        <circle
           cx="490.056"
           cy="833.68201"
           r="62.362"
           transform="translate(-429.47,102.2527)"
           style="fill:none;stroke:#000000"
           id="circle2283"
           sodipodi:cx="490.056"
           sodipodi:cy="833.68201"
           sodipodi:rx="62.362"
           sodipodi:ry="62.362" />
        <circle
           cx="490.056"
           cy="709.25299"
           r="62.362"
           transform="translate(-429.47,101.9674)"
           style="fill:none;stroke:#000000"
           id="circle2285"
           sodipodi:cx="490.056"
           sodipodi:cy="709.25299"
           sodipodi:rx="62.362"
           sodipodi:ry="62.362" />
        <circle
           cx="490.056"
           cy="958.10999"
           r="62.362"
           transform="translate(-429.47,102.539)"
           style="fill:none;stroke:#000000"
           id="circle2287"
           sodipodi:cx="490.056"
           sodipodi:cy="958.10999"
           sodipodi:rx="62.362"
           sodipodi:ry="62.362" />
      </g>
    </g>
    <g
       id="layer4">
      <g
         transform="matrix(2.08466,0,0,2.08466,2904.227,-199.1322)"
         id="g8717">
        <circle
           cx="490.056"
           cy="273.60999"
           r="249.44901"
           transform="translate(-1632.913,-81.67631)"
           style="fill:none;stroke:#000000"
           id="circle2257"
           sodipodi:cx="490.056"
           sodipodi:cy="273.60999"
           sodipodi:rx="249.44901"
           sodipodi:ry="249.44901" />
        <circle
           cx="490.056"
           cy="524.60999"
           r="249.44901"
           transform="translate(-1632.913,-83.67631)"
           style="fill:none;stroke:#000000"
           id="circle2259"
           sodipodi:cx="490.056"
           sodipodi:cy="524.60999"
           sodipodi:rx="249.44901"
           sodipodi:ry="249.44901" />
        <circle
           cx="490.056"
           cy="769.60999"
           r="249.44901"
           transform="translate(-1632.913,-79.67641)"
           style="fill:none;stroke:#000000"
           id="circle2261"
           sodipodi:cx="490.056"
           sodipodi:cy="769.60999"
           sodipodi:rx="249.44901"
           sodipodi:ry="249.44901" />
      </g>
    </g>
    <g
       id="layer5">
      <g
         transform="matrix(2.08466,0,0,2.08466,-1475.907,-522.1164)"
         id="g3577">
        <circle
           cx="490.056"
           cy="893.10999"
           r="124.725"
           transform="translate(468.2134,77.03366)"
           style="fill:none;stroke:#000000"
           id="circle2264"
           sodipodi:cx="490.056"
           sodipodi:cy="893.10999"
           sodipodi:rx="124.725"
           sodipodi:ry="124.725" />
        <circle
           cx="490.056"
           cy="643.10999"
           r="124.725"
           transform="translate(468.2134,77.70031)"
           style="fill:none;stroke:#000000"
           id="circle2266"
           sodipodi:cx="490.056"
           sodipodi:cy="643.10999"
           sodipodi:rx="124.725"
           sodipodi:ry="124.725" />
        <circle
           cx="490.056"
           cy="394.10999"
           r="124.725"
           transform="translate(468.2134,77.36698)"
           style="fill:none;stroke:#000000"
           id="circle2268"
           sodipodi:cx="490.056"
           sodipodi:cy="394.10999"
           sodipodi:rx="124.725"
           sodipodi:ry="124.725" />
        <circle
           cx="490.056"
           cy="147.11"
           r="124.725"
           transform="translate(468.2134,75.03359)"
           style="fill:none;stroke:#000000"
           id="circle2270"
           sodipodi:cx="490.056"
           sodipodi:cy="147.11"
           sodipodi:rx="124.725"
           sodipodi:ry="124.725" />
      </g>
    </g>
    <g
       id="layer10">
      <path
         d="M -262.52709,399.50505 L 517.47291,1756.6479 L 1306.0444,402.36219 C 810.66271,156.71772 293.68731,127.5706 -262.52709,399.50505 z"
         style="fill:none;fill-rule:evenodd;stroke:#000000;stroke-width:1px;stroke-linecap:butt;stroke-linejoin:miter;stroke-opacity:1"
         id="path9646" />
    </g>
  </g>
</svg>
